<svg xmlns="http://www.w3.org/2000/svg" fill="none" viewBox="0 0 1699 120" preserveAspectRatio="none">
    <path fill="url(#a)"
        d="M1723 438.928V47.855c-60.64 10.22-124.26-13.221-185.47-4.688-26.24 3.641-50.42 13.002-76.45 17.456-41.85 7.173-85.48 1.25-128.09-2.844-128.05-12.12-257.94-7.977-384.112 12.252C882.03 80.705 816.656-13.327 751.367 1.613l-91.153 20.91c-31.191 7.173-62.509 14.378-91.952 24.802-173.055 61.251-415.456-80.95-603.74-36.359-38.597 9.306-37.562 275.315-50.67 303.814v124.148s1804.598-3.282 1809.148 0Z" />
    <path fill="url(#b)"
        d="m-82.073 633.439-165.228-506.6 290.07-41.722c50.684-7.277 267.396 7.414 318.881 10.49 48.472 2.874 95.194 14.866 143.644 16.537 71.358 2.451 140.019-17.427 208.638-31.73 68.618-14.303 145.561-22.64 209.101 1.234 65.078 24.453 106.577 24.325 177.827 36.442 53.76 9.15 108.45-9.088 163.37-13.241 109.82-8.323 214.07 39.849 324.44 42.035 46.36.921 97.85-5.216 134.33 15.614v470.941" />
    <path fill="url(#c)"
        d="M1723 129.904c-80.27-24.188-172.55 54.373-258.92 49.148-114.59-6.915-231.67-62.782-343.8-81.155-101.47-16.624-195.87 20.911-299.638 15.9-36.625-1.764-73.356.89-110.065 1.561C609.483 117.2 508.98 192.1 409.403 178.925c-116.05-15.359-236.36 89.345-338.03 65.563-263.19-61.381-157.516 25.231-157.516 391.149H1723V129.904Z" />
    <defs>
        <linearGradient id="a" x1="818.404" x2="818.404" y1="438.929" y2="-60.051"
            gradientUnits="userSpaceOnUse">
            <stop stop-color="#FFECC5" />
            <stop offset="1" stop-color="#FFAC00" />
        </linearGradient>
        <linearGradient id="b" x1="820.485" x2="820.485" y1="633.439" y2="11.52"
            gradientUnits="userSpaceOnUse">
            <stop stop-color="#FFC856" />
            <stop offset="1" stop-color="#FF82CE" />
        </linearGradient>
        <linearGradient id="c" x1="818.43" x2="818.433" y1="295.404" y2="214.516"
            gradientUnits="userSpaceOnUse">
            <stop stop-color="#E07391" />
            <stop offset="1" stop-color="#FF2643" />
        </linearGradient>
    </defs>
</svg>