<svg xmlns="http://www.w3.org/2000/svg" viewBox="0 0 1114 1024">
  <path fill="#534a89" d="M635.883 903.819c267.272 0 483.935-8.553 483.935-19.105s-216.667-19.105-483.935-19.105c-267.272 0-483.927 8.553-483.927 19.105s216.661 19.105 483.927 19.105z" opacity=".25"/>
  <path fill="#fecf5b" d="M940.135 438.148c17.509 1.521 32.178 3.305 46.702 5.537l-3.925-.493c9.81 1.458 21.069 3.148 35.846 6.289 14.291 3.021 25.27 5.85 36.084 9.046l-3.387-.859c7.673 2.608 24.96 9.603 38.381 27.057 11.096 14.4 14 28.701 15.729 37.73 4.905 25.564-.913 47.049-5.139 58.677 2.942 9.639 5.684 21.031 7.54 33.985 1.446 9.632 2.293 20.78 2.334 32.117v.045l-78.319 2.836-69.595-3.547c4.663 46.462 9.296 92.898 13.966 139.361-7.267 15.828-35.747 72.709-103.515 105.242-67.261 32.265-128.98 19.276-145.958 15.116a236920.86 236920.86 0 0 0-51.567-142.501c2.029-22.189 4.092-44.373 6.117-66.525l-8.016-25.458c-1.549-8.016-3.141-16.036-4.734-24.08a221.005 221.005 0 0 1-48.119 2.84c-14.458-.754-28.027-2.771-41.142-5.957l1.513.313c1.549-18.561 3.141-37.133 4.734-55.693-1.549-7.793-2.57-16.893-2.838-26.18l-.005-.238c-.236-8.382.201-15.991.945-22.652 2.471-22.561 12.379-25.158 31.149-63.241 1.793-3.621 4.734-9.776 11.294-14.777 2.234-1.729 6.563-4.598 18.87-7.54 8.596-2.141 18.543-3.504 28.761-3.78l.192-.004c12.002-2.037 24.011-4.1 36.009-6.124 3.555 8.252 11.331 23.167 27.194 34.696 13.928 10.11 27.388 12.207 41.522 15.321 6.327 1.386 35.576 7.404 71.258-.947 48.964-11.465 79.061-42.715 90.12-55.53v-.072z"/>
  <path fill="#f2b304" d="M589.657 604.264c.171 3.955.27 7.975.342 12.067a437.252 437.252 0 0 1-.842 32.567l.064-1.246c-6.124-.784-12.207-1.521-18.333-2.3 2.471-21.884 4.976-43.764 7.438-65.682l11.331 24.56v.034zm181.891 19.479c6.362 19.549 13.115 35.904 20.935 51.637l-.989-2.198c3.115 6.168 8.125 10.988 14.257 13.791l.186.077c1.085.506 2.2.985 3.35 1.492a185.975 185.975 0 0 0 14.2 5.413c2.437.807 2.162 4.363-.372 4.769-4.474.738-9.631 1.161-14.887 1.161a96.576 96.576 0 0 1-19.686-2.018l.622.109c-2.93-6.086-5.911-13.584-8.414-21.301l-.378-1.351c-1.988-5.863-3.941-13.255-5.446-20.808l-.201-1.208-3.148-29.557h-.029z"/>
  <path fill="#534a89" d="M669.925 662.295c-11.704 1.877-25.2 2.952-38.942 2.952-21.819 0-43.002-2.703-63.243-7.792l1.783.378c.841-4.868 1.721-9.711 2.569-14.579 17.137 3.689 36.826 5.799 57.007 5.799a285.95 285.95 0 0 0 40.684-2.9l-1.521.179 1.655 15.965z"/>
  <path fill="#f099a8" d="M670.196 664.015c3.555 10.886 7.141 21.812 10.689 32.698-2.3 23.068-4.598 46.128-6.931 69.221l-43.422 3.148c-7.747 21.61-15.519 43.223-23.265 64.799l-34.597-81.166c-1.288-12.683-2.022-27.406-2.022-42.306 0-17.012.955-33.799 2.821-50.312l-.186 2.026c15.519 1.249 31.077 2.497 46.599 3.784 16.771-.643 33.546-1.249 50.319-1.892z"/>
  <path fill="#534a89" d="M1113.431 662.06a1278.369 1278.369 0 0 1-73.656 2.6c-29.014.171-56.443-.643-82.074-2.128a7108.39 7108.39 0 0 1 1.827-15.794 1039.37 1039.37 0 0 0 76.564 3.312 997.744 997.744 0 0 0 78.655-2.608l-1.313 14.644v-.029z"/>
  <path fill="#e08595" d="M683.948 682.348c-13.558 29.965-27.152 59.922-40.714 89.883l27.731 9.33 12.987-99.218z"/>
  <path fill="#f2b304" d="M964.516 603.146c-6.037 8.653-11.278 18.564-15.248 29.102l-.31.935c-8.724 23.738-8.588 44.437-7.918 81.06a651.386 651.386 0 0 0 2.268 43.485c-25.756 5.364-48.541 15.2-68.619 28.741l.68-.431c22.202-7.161 47.748-11.289 74.255-11.289 5.724 0 11.405.194 17.035.571l-.764-.039c-1.862-9.382-3.64-21.63-4.893-34.03l-.147-1.816c-.571-5.946-1.558-16.029-1.892-28.945a338.9 338.9 0 0 1-.106-8.663c0-13.316.738-26.46 2.177-39.391l-.144 1.59-2.505-.716c0-8.081.372-16.733 1.184-25.938a303.825 303.825 0 0 1 4.967-34.225h-.029zm-298.024 18.705c6.249 19.218 12.843 35.258 20.462 50.704l-.988-2.213c3.387 6.802 8.902 12.124 15.661 15.176l.201.084c.776.334 1.583.708 2.397 1.051a190.9 190.9 0 0 0 14.171 5.405c2.437.814 2.162 4.363-.372 4.769-3.418.545-7.373 1.9-13.159 1.15-6.437-.845-14.063-1.416-21.786-1.579l-.231-.004c-6.714-13.077-11.396-28.314-13.168-44.426l-.052-.59-3.141-29.557v.034zm393.507-159.787c11.925 17.584 20.782 38.284 25.251 60.568l.181 1.078c7.91 40.779-1.458 73.958-6.931 89.342 5.512-5.242 29.014-28.773 30.536-66.04 1.013-24.86-8.252-43.528-12.915-51.609-3.335-9.06-8.736-16.688-15.653-22.589l-.076-.063a52.6 52.6 0 0 0-20.053-10.6l-.372-.086h.034z"/>
  <path fill="#f2b304" d="M1094.048 594.961a121.79 121.79 0 0 1 5.169 25.865c.296 3.144.465 6.798.465 10.492 0 5.87-.428 11.638-1.248 17.279l.079-.643 16.228-1.256c.613-9.197.643-20.46-1.042-33.105-2.011-14.98-5.673-28.535-10.858-41.308l.405 1.127c-.415 4.33-1.468 8.305-3.073 11.99l.096-.254c-1.664 3.771-3.751 7.022-6.257 9.891l.037-.043v-.034zm-117.556-88.706c2.192 1.184-6.563 16.372-11.465 37.609-5.748 24.888-3.483 46.599-.742 60.935l-6.798 30.608c-6.969-15.558-15.393-41.152-11.331-70.779 2.063-14.945 7.233-25.596 8.489-28.302 6.798-14.442 19.44-31.35 21.846-30.064zm-379.295 4.871c-8.96 20.798-7.982 39.302-7.54 45.928.201 2.904.372 3.989 4.297 26.886 1.078 6.352 4.118 24.275 5.139 30.365a83.598 83.598 0 0 1-15.78-21.408l-.217-.469c-8.724-17.278-8.96-32.942-9.166-45.457-.163-12.479-.372-24.681 5.648-38.987 5.078-12.036 12.01-19.65 17.621-25.801 5.919-6.498 15.42-16.669 30.84-23.909 19.612-9.231 38.182-8.66 47.992-7.54-11.465 2.128-35.34 8.318-56.139 28.302-14.678 14.099-21.202 28.716-22.66 32.094h-.034z"/>
  <path fill="#f099a8" d="m962.818 663.373 143.289.171c-2.468 27.371-6.136 51.783-11.116 75.716l.735-4.229c-3.521 17.449-7.039 34.525-14.644 56.715-6.225 18.157-11.637 29.485-20.125 47.17-11.159 23.231-15.386 28.173-20.117 32.1-5.242 4.329-12.479 8.481-35.945 13.357-16.633 3.603-36.057 6.03-55.912 6.742l-.595.018s-58.138 1.558-103.82-1.249c-13.546-.765-24.423-1.586-35.252-2.59l3.803.284s-7.476-.67-14.473-1.45c-28.035-3.114-78.627-13.7-82.316-14.48 1.252-24.612 8.767-47.237 20.971-66.61l-.336.572c19.946-.072 39.904-.171 59.858-.236 34.32-7.554 57.738-13.553 80.938-20.06l-11.172 2.676c30.128-8.252 51.433-15.116 82.411-14.473 7.54.163 13.765.708 17.921 1.176l-8.009-49.306c-.847-6.278-1.332-13.528-1.332-20.897 0-2.438.053-4.864.156-7.277l-.012.344c.556-12.373 2.384-24.059 5.364-35.271l-.258 1.153v-.072z"/>
  <path fill="#e08595" d="M1077.841 672.811c-.856 23.363-4.369 45.527-10.25 66.705l.48-2.017c-6.76 24.788-15.721 43.756-22.996 56.817 1.9-1.051 8.994-5.177 16.642-13.429 2.334-2.497 14.029-15.794 19.984-38.112 8.823-33.071-1.249-62.835-3.818-69.929l-.034-.034zM843.784 820.247c17.833-3.225 42.393-6.556 67.197-9.056l4.596-.374c25.331-2.471 49.37-3.929 72.03-4.598-11.355-6.346-24.642-10.809-38.763-12.561l-.531-.053c-21.747-2.569-38.617 2.266-57.863 7.811-17.928 5.238-33.413 11.645-48.018 19.478l1.318-.647h.034z"/>
  <path fill="#534a89" d="M736.969 805.002c-5.585-9.094-23.338-35.305-58.236-48.933-12.735-5.102-27.497-8.061-42.947-8.061-2.714 0-5.406.09-8.073.269l.363-.02a26.532 26.532 0 0 0-19.758 11.007l-.054.082c-5.919 8.324-12.245 19.756-15.591 34.157-8.652 37.304 9.094 67.06 14.073 74.844a496.244 496.244 0 0 0 55.522 5.748c19.821.947 38.08.643 54.517-.372a195.222 195.222 0 0 1 5.748-31.312c3.932-14.353 8.849-26.788 14.92-38.527l-.512 1.09.034.034z"/>
  <path fill="#d8cafc" d="M611.853 818.659c-1.549-5.014-2.44-10.774-2.44-16.745 0-1.438.052-2.864.152-4.274l-.012.19c.545-7.502 1.793-25.294 14.473-32.39 9.603-5.382 20.734-1.865 26.615 0 8.262 2.702 15.282 7.296 20.801 13.286l.029.033c-7.025-1.885-15.089-2.967-23.405-2.967-1.128 0-2.255.022-3.372.06l.162-.005c-10.381.408-13.936 2.372-15.63 3.483-7.031 4.606-9.159 12.516-9.84 15.63l-7.502 23.704h-.034z"/>
  <path fill="#f099a8" d="M650.748 242.219c4.395-1.326 9.447-2.092 14.68-2.092 2.062 0 4.099.12 6.098.351l-.245-.024c8.372.974 15.93 3.78 22.489 8.005l-.205-.126c.137 12.372.309 24.754.442 37.125-4.534 2.037-9.033 4.1-13.566 6.124a54.96 54.96 0 0 1-5.752.291c-8.53 0-16.622-1.874-23.89-5.237l.353.144c-10.753-5.059-19.425-13.03-25.215-22.899l-.144-.266c-4.31-7.411-7.02-16.234-7.433-25.653l-.004-.121 32.39 4.363z"/>
  <path fill="#fff" d="M617.97 236.531c7.366 11.329 16.368 20.888 26.794 28.636l.294.207c9.491 7.05 20.524 12.716 32.431 16.406l.775.205c-3.718 1.116-26.68 7.673-41.967-4.804-5.105-4.16-8.218-9.539-10.045-12.679-6.426-11.024-7.91-21.675-8.318-27.97h.034z"/>
  <path fill="#534a89" d="M653.942 78.949c-.099 15.348-.171 48.049 1.15 84.474.201 5.919.708 15.492 6.997 24.487 7.845 11.188 20.426 15.279 27.395 16.904l1.15 40.209c-8.96-1.355-39.497-7.103-53.025-31.449-3.684-6.631-7.673-17.491-3.483-52.454 2.397-20.091 7.576-48.624 19.821-82.145v-.029z"/>
  <path fill="#fff" d="M698.847 201.29c-4.216 9.361-6.67 20.29-6.67 31.797 0 3.994.296 7.922.868 11.759l-.053-.432c16.036 1.568 30.289 8.156 41.426 18.152l-.068-.06c6.409 10.725 10.934 23.323 12.76 36.785l.057.511c4.126 31.963-8.861 56.614-14 65.266 6.8 3.83 14.932 6.087 23.588 6.087 3.198 0 6.327-.31 9.353-.894l-.309.049c3.241.548 6.978.863 10.787.863s7.544-.315 11.183-.916l-.394.054c5.489-.913 10.39-2.335 15.03-4.258l-.451.166c-5.546-9.639-19.242-36.417-13.395-69.324 1.42-8.016 4.363-23.368 16.3-37.875 13.494-16.334 30.779-22.218 40.786-25.63 13.657-4.671 25.702-5.71 33.783-5.82-5.885-5.402-10.328-12.289-12.736-20.067l-.086-.321c-4.688 1.23-10.069 1.933-15.619 1.933-1.68 0-3.345-.065-4.991-.193l.217.015c-5.358-.435-10.309-1.465-15.019-3.035l.447.13c-3.718 3.106-14.171 10.987-29.729 12.239a51.315 51.315 0 0 1-4.144.162 52.648 52.648 0 0 1-22.391-4.963l.323.137c-4.618 1.939-9.981 3.069-15.611 3.069a41.09 41.09 0 0 1-19.578-4.931l.217.107c-4.272 1.997-9.269 3.163-14.545 3.163-2.694 0-5.317-.306-7.837-.882l.235.045c-8.119-1.943-14.964-6.511-19.76-12.733l-.061-.084.072-.072z"/>
  <path fill="#f099a8" d="m904.053 343.772 6.426 51.837c5.006 14.849 10.011 29.729 15.051 44.57a176.212 176.212 0 0 1-58.668 36.029l-1.223.394c-3.148 1.116-34.053 11.937-65.811 9.973-12.543-.776-23.605-3.449-25.024-3.784-7.103-1.729-13.795-3.418-21.945-7.544-9.132-4.633-15.116-9.84-18.905-13.224a105.118 105.118 0 0 1-16.483-18.528l-.224-.341 5.648-2.668c2.135-5.881 4.263-11.736 6.361-17.621 2.334 2.569 6.352 6.289 12.273 8.496 3.521 1.313 6.327 1.583 15.558 2.12 5.477.309 11.637.643 18.397.947h.241c9.004 0 17.808-.863 26.328-2.509l-.867.141c11.903-2.226 14.913-4.5 16.498-5.881 2.268-2.029 3.826-4.355 8.724-16.498 2.608-6.498 4.671-11.971 6.124-16.029 1.484-7.952 2.976-15.9 4.5-23.844 22.318-8.69 44.669-17.35 66.987-26.036h.034zm-212.24-97.904c.545 25.903.643 42.606.571 53.903 0 0 0 2.266.072 6.426.034 2.771.099 5.306.163 7.567.137 5.139.309 8.994.376 9.916.334 7.982-.376 12.924-.613 21.983-.372 13.251-.537 19.881 1.15 25.195 2.2 6.76 5.648 11.188 11.366 18.363 4.632 5.798 9.598 10.942 15.002 15.594l.148.128c-2.217-5.114-3.765-11.044-4.344-17.251l-.019-.232a56.514 56.514 0 0 1-.223-5.135c0-5.01.622-9.872 1.797-14.516l-.086.409c.849-1.013 2.642-2.84 5.546-3.784 5.748-1.865 10.753 1.583 11.366 2.029 3.761-10.272 7.005-22.523 9.151-35.149l.179-1.276c3.213-19.612 5.177-31.648.309-46.022-1.729-5.112-6.124-17.491-18.633-27.087-13.528-10.388-28.139-11.066-33.212-11.066h-.065z"/>
  <path fill="#f099a8" d="M990.746 220.811c-21.168 1.249-42.336 2.535-63.505 3.784l-18.363 4.363-18.363-.879c-2.816-.253-6.09-.393-9.398-.393-9.598 0-18.91 1.203-27.803 3.47l.776-.167c-8.352 2.097-22.081 5.519-34.969 15.729-22.417 17.758-27.251 44.098-28.538 51.262-6.261 34.197 9.197 60.977 13.691 68.183l15.15-6.997c2.642-.072 8.218.236 13.691 3.784 2.169 1.42 3.792 41.16 4.94 42.542 20.858-7.955 37.091-15.119 52.941-22.921l-3.701 1.646c15.314-7.404 23.159-12.002 27.087-20.963 1.957-4.5 2.569-48.461 3.784-60.03.947-8.96 1.287-16.399 1.458-21.576 6.525-.442 16.634-1.964 27.666-7.267 6.798-3.326 12.65-7.311 17.853-11.998l-.069.061a128.974 128.974 0 0 0 15.972-21.552l.328-.602c4.126-7.031 7.103-13.691 9.337-19.512l.029.034z"/>
  <path fill="#fff" d="M991.074 220.232c-7.781 10.209-22.66 26.823-46.599 38.454-9.598 4.768-20.736 8.512-32.428 10.659l-.784.12c5.477 1.564 22.96 5.691 41.967-2.634 17.693-7.739 26.345-21.812 29.999-27.967 3.241-5.363 5.934-11.555 7.751-18.107l.125-.525h-.029zM856.171 290.74c-1.484-1.116-10.86-7.811-23.034-5.242-10.11 2.128-18.329 9.874-21.576 20.091 1.15.807 12.444 8.481 26.207 3.784 13.566-4.598 17.929-17.278 18.363-18.633h.034zm-162.878 1.29c1.45-1.013 10.445-7.176 22.118-4.842 9.804 2.071 17.585 9.109 20.67 18.303l.057.197c-1.078.75-11.971 7.781-25.195 3.483-13.015-4.263-17.213-15.892-17.612-17.141h-.034zm122.083 135.335c-8.861 7.031-20.867 7.031-44.879 6.997-16.771 0-25.158-.034-32.054-4.092-14.949-8.759-18.834-26.444-20.971-36.116-1.655-7.567-5.105-23.026 1.755-27.967 4.397-3.179 8.831 1.051 25.637 3.483 8.218 1.184 15.013 1.184 28.544 1.142 13.628 0 20.454 0 24.48-1.142 11.431-3.247 14.742-8.724 25.63-8.724 2.951 0 9.438 0 12.245 4.092 1.692 2.471 1.15 5.782 0 12.245-2.234 12.508-3.35 18.762-3.483 19.242-3.076 10.282-6.859 22.922-16.904 30.87v-.029z"/>
  <path fill="#534a89" d="M968.593 61.466c.228 7.635.36 16.616.36 25.63s-.132 17.993-.387 26.944l.029-1.314c-.613 22.189-1.692 31.792-8.153 41.358-5.204 7.711-11.531 11.937-18.054 16.3-10.642 7.164-23.177 12.452-36.67 15.056l-.635.101c-4.034 5.651-6.45 12.703-6.45 20.316 0 .442.008.886.026 1.324l-.001-.064c.374 8.036 3.394 15.299 8.197 21.016l-.043-.053 33.783-11.058c15.794-5.169 31.449-14.507 41.358-30.3 8.652-13.795 8.519-27.7 8.146-43.691-.372-17.008-3.585-46.664-21.576-81.559h.072z"/>
  <path fill="#f27289" d="M905.063 229.26c-2.979-5.027-5.041-10.949-5.791-17.273l-.022-.211a44.208 44.208 0 0 1-.27-4.97 45.497 45.497 0 0 1 5.053-20.912l-.121.258c-.298-6.233-1.987-12.014-4.766-17.115l.103.207c-1.692-3.076-7.952-13.463-37.883-25.059-22.922-8.895-30.264-7.069-42.538-16.308-6.823-5.247-12.474-11.637-16.745-18.932l-.166-.31c.106 5.139.985 13.765 5.684 23.034 2.321 4.564 5.091 8.493 8.345 11.964l-.029-.029c-28.223-9.878-51.216-28.731-66.107-53.085l-.313-.545c-.289 4.011-.454 8.691-.454 13.406s.164 9.397.488 14.031l-.034-.624a189.893 189.893 0 0 0 2.334 19.242c-6.196-4.568-11.559-9.75-16.166-15.556l-.133-.173c-4.548-5.715-8.462-12.247-11.454-19.257l-.209-.552c-4.026 10.283-6.356 22.187-6.356 34.638 0 3.604.197 7.162.576 10.666l-.037-.432c-5.61-2.15-10.442-5.098-14.625-8.77l.054.046a47.631 47.631 0 0 1-9.785-12.006l-.122-.231a78.24 78.24 0 0 0-4.092 23.875 77.536 77.536 0 0 0 1.755 17.483 32.389 32.389 0 0 0-6.995 19.192l-.001.049a32.565 32.565 0 0 0 5.879 19.346l-.071-.105.545 19.512c2.942-8.652 5.847-17.278 8.797-25.938 1.957 2.741 5.439 6.969 11.051 10.48 4.982 3.168 10.939 5.258 17.341 5.81l.144.011 13.395-4.092c5.188 3.765 11.608 6.129 18.562 6.423l.071.003a33.777 33.777 0 0 0 16.359-3.571l-.197.087c3.955 1.926 13.429 5.919 25.774 4.671 10.639-1.154 20.064-5.597 27.426-12.281l-.039.034 19.249 2.334c5.439-.979 10.886-1.926 16.3-2.904l8.146 13.993 9.33 8.153 22.732 2.334.029-.034z"/>
  <path fill="#e08595" d="M906.475 375.591c-9.673 4.697-19.341 9.402-28.979 14.099 6.056 9.582 12.373 17.901 19.324 25.641l-.154-.175c8.569 9.515 17.898 18.02 28.003 25.543l.504.36c-9.571-19.057-16.195-41.247-18.595-64.689l-.068-.817-.034.034z"/>
  <path fill="#d65c7c" d="M748.629 110.699c9.86 22.585 25.651 41.042 45.421 53.888l.47.287c-4.5.376-16.84.716-27.528-7.438-5.276-4.02-8.081-8.519-10.045-11.8-7.884-13.053-8.66-26.68-8.318-34.963v.029zm-6.909 101.38c-2.437.887-14.777 5.006-28.035-1.313-7.472-3.671-13.375-9.575-16.948-16.835l-.094-.215 23.159 11.808c7.305 2.192 14.606 4.389 21.918 6.555zm152.425 16.602-10.924-.879c-6.911-4.868-12.296-11.471-15.579-19.185l-.11-.294c-2.131-5.038-3.368-10.899-3.368-17.047 0-2.437.196-4.825.568-7.153l-.033.258c3.644 10.733 8.585 20.047 14.768 28.383l-.197-.276c4.466 6.044 9.345 11.336 14.735 16.066l.114.096.029.029zm-28.393-22.722c-4.734 1.492-18.905 5.31-35.404-.434-19.348-6.734-28.408-21.918-30.608-25.774 12.41 6.352 24.822 12.687 37.232 19.041l28.743 7.202.034-.034zm-172.287-79.398c.258 13.645 2.675 26.645 6.926 38.78l-.264-.871c3.479 10.012 7.767 18.668 12.967 26.673l-.287-.473c-3.35-.907-8.861-2.97-13.558-7.876-1.521-1.63-6.09-6.76-8.218-20.392-1.15-7.274-2.063-19.954 2.397-35.846h.034zm48.605 30.47c3.35 7.639 11.058 22.417 27.087 34.525 22.96 17.384 47.65 17.686 55.496 17.483-3.718 2.063-23.711 12.778-45.012 4.796-12.002-4.5-18.967-12.88-22.725-17.475-12.508-15.42-14.473-32.371-14.841-39.336zm88.293-2.203 15.729 11.366c5.538 3.213 11.058 6.426 16.6 9.603-1.15.334-13.628 3.547-23.605-4.804-7.134-5.984-8.455-14.065-8.724-16.162z"/>
  <path fill="#1f144f" d="M872.014 251.651c-6.832 5.676-16.3 6.661-25.158 7.233-12.543.814-18.77 1.655-25.465 6.426-6.392 4.534-9.33 11.294-10.852 16.097 6.426-3.521 12.987-7.069 20.189-8.39 7.811-1.42 11.359-.472 16.87-1.621 6.426-1.321 15.287-5.684 24.453-19.749h-.034zm-179.029 7.437c5.105 1.858 9.402 2.733 12.345 3.171 7.305 1.085 10.347.205 15.794 2.471 1.692.716 4.933 2.097 7.947 5.284 4.027 4.255 5.177 9.125 5.546 11.389-5.413-5.855-10.415-7.91-14.073-8.652-4.427-.913-7.031.072-13.902-.342a64.651 64.651 0 0 1-13.704-2.234l.453.106-.372-11.195h-.034zm100.778 134.459c4.796 0 8.69-3.07 8.69-6.859s-3.89-6.867-8.69-6.867c-4.804 0-8.694 3.07-8.694 6.867 0 3.784 3.89 6.859 8.694 6.859zm-50.087 0c4.796 0 8.69-3.07 8.69-6.859s-3.89-6.867-8.69-6.867-8.69 3.07-8.69 6.867c0 3.784 3.89 6.859 8.69 6.859zm-32.587-83.531c6.613 0 11.971-5.362 11.971-11.971s-5.362-11.971-11.971-11.971c-6.613 0-11.971 5.362-11.971 11.971s5.362 11.971 11.971 11.971z"/>
  <path fill="#fff" d="M708.992 306.64a5.542 5.542 0 1 0 0-11.084 5.542 5.542 0 1 0 0 11.084z"/>
  <path fill="#1f144f" d="M825.791 313.13c6.613 0 11.971-5.362 11.971-11.971s-5.362-11.971-11.971-11.971c-6.613 0-11.971 5.362-11.971 11.971s5.362 11.971 11.971 11.971z"/>
  <path fill="#fff" d="M824.165 308.802a5.545 5.545 0 1 0 0-11.092 5.545 5.545 0 1 0 0 11.092z"/>
  <path fill="#534a89" d="M874.739 267.516c-12.173.773-33.041-6.124-63.919-2.505-10.715 1.249-19.105 5.61-38.283 7.673-2.162.236-3.986.408-5.169.506a43.185 43.185 0 0 1-4.694-.397l.226.027c-7.502-1.051-14.708-4.868-29.116-6.525-23.501-2.714-39.431 4.769-48.696 4.355-6.318-.262-7.339-.499-5.748 14.073 1.051 9.565 1.458 9.61 5.718 14.545 4.02 4.671 2.733 8.797 4.389 16.136 2.505 11.123 8.218 19.375 16.097 22.988 7.51 3.456 22.897 3.247 30.906-.029 10.586-4.331 13.395-10.689 17.826-22.523 1.926-5.211 6.688-21.062 12.508-22.18 7.845.334 14.099 16.562 16.642 21.812 5.676 11.702 9.33 17.955 23.159 21.884 10.518 2.97 30.677 2.6 40.615-1.15 10.381-3.929 17.989-12.379 21.373-23.639 2.226-7.445.605-11.537 5.919-16.334 5.61-5.105 6.181-5.177 7.639-14.777 2.234-14.678.913-14.408-7.404-13.902v-.034zM749.28 312.787c-3.826 10.243-5.618 14.979-14.27 18.526-6.734 2.779-20.906 3.076-27.395.106-6.498-2.976-10.822-9.737-12.752-18.333-1.827-6.426-7.103-33.512-.807-35.983 3.646-.67 7.331-1.583 10.651-2.192 9.603-1.763 18.834-2.406 28.401-1.287 6.931.807 13.429 2.463 20.163 4.427 7.134 2.437-1.287 27.594-3.963 34.768l-.029-.034zm112.239-2.408c-2.608 8.694-8.352 15.63-16.913 18.876-8.588 3.241-27.152 3.449-35.975.945-11.331-3.213-13.666-7.91-18.568-18.028-3.449-7.069-14.27-31.956-4.868-34.662 8.861-2.226 17.384-4.157 26.516-5.211 12.607-1.477 24.716-1.214 37.296.179 4.329.472 9.166 1.249 13.966 1.786 8.218 2.234 1.051 29.557-1.42 36.089l-.029.034zm65.217 127.37c-12.345 12.345-35.203 31.621-69.016 41.936-13.84 4.397-29.753 6.933-46.265 6.933-.545 0-1.094-.003-1.638-.01l.086.001c-20.052-.3-43.185 0-64.182-15.116-13.528-9.737-21.005-22.009-24.894-29.893-3.818.879-7.639 1.793-11.495 2.668 5.455 13.023 13.656 23.953 23.935 32.456l.141.111c11.62 9.539 26.077 16.043 41.921 18.11l.423.043a55.394 55.394 0 0 0 4.875 23.484l-.143-.351c3.921-6.76 7.884-13.528 11.8-20.288a166.51 166.51 0 0 0 18.263 1.355c23.132.372 51.605-7.544 51.605-7.544 20.072-6.53 37.474-16.043 52.686-28.186l-.332.258c9.395-7.516 17.68-15.725 25.026-24.727l.234-.296c-4.329-.309-8.66-.643-12.987-.947h-.034z"/>
  <path fill="#b2e0f9" d="M449.188 736.123c98.353-98.345 98.353-257.804 0-356.154-98.345-98.345-257.804-98.345-356.154 0-98.345 98.353-98.345 257.804 0 356.154 98.353 98.353 257.804 98.353 356.154 0z" opacity=".15"/>
  <path fill="#013d58" d="M129.257 780.831C6.938 705.039-30.902 543.882 44.878 421.571c75.776-122.296 236.949-160.159 359.252-84.379 122.311 75.784 160.163 236.949 84.379 359.252-75.784 122.311-236.941 160.152-359.248 84.371l-.008.015zm263.93-425.958c-112.558-69.751-260.88-34.912-330.623 77.649-69.751 112.558-34.912 260.88 77.649 330.623s260.873 34.912 330.623-77.649c69.743-112.558 34.912-260.88-77.649-330.623z"/>
  <path fill="#013d58" d="M502.955 736.318c-14.83 23.916-42.938 33.334-62.797 21.028s16.136-16.84 30.955-40.752c14.822-23.916 2.855-58.164 22.717-45.865 19.855 12.307 23.947 41.667 9.125 65.59z"/>
  <path fill="#013d58" d="m628.488 824.16-158.652-98.304c-2.955-1.866-4.893-5.121-4.893-8.822 0-2.014.572-3.892 1.563-5.484l-.027.043 4.217-6.798c1.865-2.955 5.117-4.891 8.816-4.891 2.017 0 3.898.574 5.489 1.568l-.043-.027 158.652 98.304c4.848 3 6.346 9.417 3.357 14.262l-4.217 6.791c-1.865 2.959-5.116 4.9-8.818 4.9-2.016 0-3.897-.574-5.488-1.568l.043.027z"/>
  <path fill="#873b2b" d="M842.236 976.398 528.338 781.9c-5.85-3.69-9.678-10.117-9.678-17.437 0-3.988 1.136-7.714 3.104-10.866l-.05.086 8.324-13.444c3.691-5.847 10.116-9.673 17.433-9.673 3.989 0 7.717 1.136 10.869 3.107l-.086-.05 313.905 194.498c5.845 3.689 9.671 10.113 9.671 17.429 0 3.988-1.136 7.714-3.106 10.866l.05-.086-8.333 13.452c-3.693 5.845-10.118 9.669-17.436 9.669a20.46 20.46 0 0 1-10.867-3.104l.086.05h.008z"/>
  <path fill="#7d2f23" d="M521.711 753.685c-1.919 3.067-3.054 6.79-3.054 10.776 0 7.32 3.829 13.747 9.595 17.388l.086.049 313.898 194.498c3.066 1.915 6.787 3.048 10.772 3.048 7.32 0 13.747-3.826 17.392-9.59l.049-.086L521.711 753.68z"/>
  <path fill="#3459a5" d="M266.072 803.81c-44.993 0-89.164-12.474-128.295-36.71-55.496-34.385-94.303-88.414-109.269-152.139-14.972-63.725-4.272-129.395 30.113-184.884C129.715 315.341 280.9 279.83 395.636 350.924c114.736 71.087 150.247 222.279 79.153 337.015-34.385 55.488-88.414 94.295-152.139 109.269-16.995 4.179-36.511 6.585-56.583 6.604h.003zm1.012-480.251c-78.906 0-156.06 39.554-200.573 111.402-33.083 53.386-43.364 116.556-28.972 177.856 14.4 61.319 51.723 113.294 105.122 146.381 110.374 68.388 255.832 34.231 324.229-76.15 68.403-110.374 34.24-255.832-76.142-324.229-35.1-22.129-77.802-35.26-123.57-35.26h-.095.005z"/>
  <path fill="#6837ff" d="M130.331 474.914c2.192 0 5.424 1.002 9.711 2.985 4.282 1.998 7.774 4.785 10.468 8.367s4.035 6.225 4.035 7.918v.086a5.87 5.87 0 0 1-1.799 4.239l-.001.001-60.341 66.93 61.254 63.04c1.192 1.199 1.786 2.642 1.786 4.329 0 1.692-1.393 4.386-4.175 8.066-2.714 3.592-6.227 6.441-10.294 8.297l-.167.069c-4.183 1.892-7.316 2.836-9.41 2.836-.063.003-.136.003-.205.003a7.041 7.041 0 0 1-5.02-2.094l-69.009-76.477c-2.79-2.782-4.183-5.276-4.183-7.476 0-2.192 1.002-4.274 2.991-6.269l69.31-82.762c1.199-1.393 2.885-2.094 5.078-2.094l-.023.008zm192.141-40.931c1.002-2.192 2.927-3.293 5.82-3.293s5.927.7 9.117 2.094c7.369 3.384 12.15 7.369 14.336 11.953.784 1.401 1.199 2.691 1.199 3.89a6.558 6.558 0 0 1-.616 3.023l.018-.039-139.517 242.297c-1.199 1.983-3.293 2.985-6.283 2.985-2.985 0-5.969-.708-8.96-2.094-7.567-3.585-12.451-7.567-14.644-11.953a7.561 7.561 0 0 1-.898-3.432v-.01c0-1.093.3-2.143.898-3.133l139.532-242.289zm145.751 125.783c1.983 1.998 2.985 4.092 2.985 6.278s-1.401 4.677-4.183 7.476l-69.009 76.477a7.064 7.064 0 0 1-5.232 2.091h.011c-2.094 0-5.276-.945-9.565-2.836-4.262-1.866-7.79-4.728-10.412-8.295l-.049-.072c-2.691-3.678-4.035-6.369-4.035-8.066l-.001-.086a5.91 5.91 0 0 1 1.784-4.238l.001-.001 61.254-63.04-60.349-66.927a5.86 5.86 0 0 1-1.786-4.223l.001-.114v.007c0-1.692 1.344-4.329 4.035-7.91 2.702-3.564 6.225-6.369 10.294-8.16l.166-.067c4.282-1.892 7.461-2.836 9.565-2.836 2.097 0 3.833.602 5.219 1.793l69.31 82.754z"/>
  <path fill="#f099a8" d="m962.818 663.379 143.289.171c-2.468 27.371-6.136 51.783-11.116 75.716l.735-4.229c-3.521 17.449-7.039 34.525-14.644 56.715-6.225 18.157-11.637 29.485-20.125 47.17-11.159 23.231-15.386 28.173-20.117 32.094-5.242 4.331-12.479 8.489-35.945 13.357-16.634 3.61-36.059 6.04-55.916 6.751l-.593.018s-58.138 1.558-103.82-1.249c-13.546-.765-24.423-1.586-35.252-2.59l3.803.284s-7.476-.67-14.473-1.45c-28.035-3.114-78.627-13.7-82.316-14.48 1.252-24.612 8.767-47.237 20.971-66.61l-.336.572c19.946-.072 39.904-.171 59.858-.236 34.32-7.554 57.738-13.553 80.938-20.06l-11.172 2.676c30.128-8.252 51.433-15.116 82.411-14.473 7.54.163 13.765.708 17.921 1.176l-8.009-49.306c-.847-6.278-1.332-13.528-1.332-20.897 0-2.438.053-4.864.156-7.277l-.012.344c.556-12.373 2.384-24.059 5.364-35.271l-.258 1.153v-.072z"/>
  <path fill="#e08595" d="M1077.841 672.817c-.856 23.363-4.369 45.527-10.25 66.705l.48-2.017c-6.76 24.788-15.721 43.756-22.996 56.817 1.9-1.051 8.994-5.177 16.642-13.429 2.334-2.497 14.029-15.794 19.984-38.112 8.823-33.071-1.249-62.835-3.818-69.929l-.034-.034zM843.784 820.255c17.833-3.225 42.393-6.556 67.197-9.056l4.596-.374c25.331-2.471 49.37-3.929 72.03-4.598-11.355-6.346-24.642-10.809-38.763-12.561l-.531-.053c-21.747-2.569-38.617 2.266-57.863 7.811-17.928 5.238-33.413 11.645-48.018 19.478l1.318-.647h.034z"/>
  <path fill="#534a89" d="M736.969 805.009c-5.585-9.094-23.338-35.305-58.236-48.933-12.735-5.102-27.497-8.061-42.947-8.061-2.714 0-5.406.09-8.073.269l.363-.02a26.532 26.532 0 0 0-19.758 11.007l-.054.082c-5.919 8.324-12.245 19.756-15.591 34.157-8.652 37.304 9.094 67.06 14.073 74.844a496.244 496.244 0 0 0 55.522 5.748c19.821.947 38.08.643 54.517-.372a195.222 195.222 0 0 1 5.748-31.312c3.932-14.353 8.849-26.788 14.92-38.527l-.512 1.09.034.034z"/>
  <path fill="#d8cafc" d="M611.853 818.668c-1.549-5.014-2.44-10.774-2.44-16.745 0-1.438.052-2.864.152-4.274l-.012.19c.545-7.502 1.793-25.294 14.473-32.39 9.603-5.382 20.734-1.865 26.615 0 8.262 2.702 15.282 7.296 20.801 13.286l.029.033c-7.025-1.885-15.089-2.967-23.405-2.967-1.128 0-2.255.022-3.372.06l.162-.005c-10.381.408-13.936 2.372-15.63 3.483-7.031 4.598-9.159 12.516-9.84 15.63l-7.502 23.704h-.034z"/>
</svg>