<svg xmlns="http://www.w3.org/2000/svg" fill="none" viewBox="0 0 282 205">
  <g fill="#6837FF">
    <path d="M249.838 0h31.086c2.591 18.9582.263 35.9975-11.345 51.5478-5.117 7.0973-11.754 12.9374-19.42 17.0851-7.665 4.1476-16.159 6.4957-24.849 6.8691-11.469.5955-22.961.5955-34.431 0-17.019-.6287-29.053 6.8818-37.415 21.4727-3.541 6.1543-7.443 12.0763-12.067 19.4873-3.673-6.617-6.558-12.605-10.297-18.0315-3.787-5.2784-8.057-10.1857-12.755-14.6571-2.973-2.8311-6.486-5.0216-10.326-6.438-3.839-1.4164-7.924-2.0289-12.0054-1.8003-12.5591.2647-25.151.2316-37.7102 0-26.7577-.397-51.4168-19.256-57.28646-45.4269C-1.08171 20.811.688905 10.6206.688905.132372H31.6768c.2624 4.334248.6559 9.065468.8198 13.796728.6231 18.3296 9.8374 28.0238 28.4629 28.8179 8.7375.4963 17.4957.4963 26.2332 0 9.5479-.9579 19.1893.0718 28.3263 3.0255 9.138 2.9536 17.577 7.7684 24.796 14.1461 4.361-2.8123 8.362-5.4924 12.428-8.04 9.657-6.306 21-9.4702 32.496-9.0655 9.838.364 19.708.2316 29.512.2316 22.987 0 37.317-13.2343 34.923-35.03788-.139-2.66938-.084-5.3455.164-8.00682Zm-93.39 204.735c-7.903 0-15.444.166-21.97.166-8.231 0-12.494-2.383-16.101-10.456l63.288-94.7575h42.301c-22.593 35.7655-44.433 69.8775-67.518 105.0475Z"/>
    <path d="m99.9811 98.8564 27.8729 42.5816-22.2 31.862c-17.773-23.425-31.1846-48.206-47.8426-72.591 14.6906-3.3414 28.0694-.8269 42.1697-1.8526Z"/>
  </g>
</svg>
