<svg xmlns="http://www.w3.org/2000/svg" viewBox="0 0 1024 1024">
  <path fill="currentColor" d="M517.005 137.725c-1.957.838-10.255 1.903-18.424 2.359-10.04.553-15.76 1.404-17.629 2.617-1.527.99-6.981 2.223-12.108 2.744-5.558.556-10.055 1.659-11.11 2.702-.963.963-4.55 2.091-7.968 2.497s-7.122 1.574-8.258 2.608c-1.138 1.022-4.817 2.298-8.162 2.837-3.36.534-7.032 1.766-8.175 2.756-1.141.987-3.854 2.137-6.034 2.545-2.183.405-5.334 1.817-6.992 3.125-1.668 1.313-4.216 2.386-5.663 2.386s-3.544 1.01-4.654 2.235c-1.114 1.237-3.595 2.558-5.497 2.937s-4.554 1.777-5.883 3.111c-1.332 1.329-3.776 2.419-5.428 2.419s-3.313.783-3.683 1.75-2.49 2.407-4.722 3.215-4.05 1.885-4.05 2.399c0 .513-1.87 1.715-4.159 2.668s-4.159 2.232-4.159 2.843c0 .609-1.739 1.809-3.866 2.66s-4.297 2.263-4.817 3.122c-.526.856-1.623 1.556-2.467 1.556-.822 0-2.62 1.198-3.981 2.673-1.364 1.476-4.471 4.018-6.897 5.648-2.431 1.631-5.616 4.173-7.085 5.648s-3.254 2.673-3.971 2.673-1.881 1.066-2.577 2.373c-.697 1.304-1.838 2.373-2.517 2.373-1.603 0-40.266 38.711-40.266 40.314 0 .665-1.066 1.774-2.373 2.469s-2.373 2.042-2.373 2.976c0 .934-1.066 2.279-2.373 2.976s-2.373 1.856-2.373 2.561-1.476 3.035-3.266 5.183c-1.802 2.138-4.345 5.322-5.648 7.073s-3.207 4.106-4.206 5.239c-1.01 1.13-2.545 3.776-3.407 5.862-.869 2.091-2.077 3.814-2.686 3.814-.604 0-1.89 1.87-2.843 4.159s-2.268 4.159-2.907 4.159c-.641 0-1.173.763-1.173 1.691s-1.339 3.277-2.976 5.226c-1.631 1.949-2.976 4.359-2.976 5.381s-1.339 3.29-2.976 5.052c-1.631 1.762-2.976 3.974-2.976 4.92s-1.066 3.078-2.373 4.742c-1.304 1.667-2.373 3.922-2.373 5.005 0 1.098-1.339 3.798-2.976 6.013s-2.976 5.146-2.976 6.511c0 1.36-1.066 3.393-2.373 4.511-1.386 1.194-2.373 3.501-2.373 5.569 0 1.946-1.002 4.488-2.223 5.661s-2.608 4.241-3.074 6.821c-.465 2.577-1.873 5.994-3.125 7.592-1.324 1.674-2.279 4.765-2.279 7.332 0 2.497-.963 5.668-2.192 7.263-1.205 1.563-2.55 5.475-2.983 8.691s-1.623 6.793-2.657 7.931c-1.104 1.213-2.144 5.199-2.514 9.598-.352 4.138-1.574 9.125-2.713 11.082-1.281 2.192-2.346 7.332-2.789 13.361-.405 5.691-1.571 11.412-2.749 13.667-4.394 8.342-4.3 119.62.111 126.362 1.386 2.128 2.324 6.504 2.729 12.88.39 6.066 1.386 10.982 2.702 13.232 1.151 1.957 2.375 6.699 2.749 10.521.365 3.83 1.503 7.874 2.514 9.002 1.014 1.122 2.187 4.676 2.608 7.899s1.559 6.778 2.526 7.896c.966 1.117 2.239 4.582 2.824 7.686s1.79 6.058 2.693 6.558c.899.497 1.981 3.221 2.407 6.045.43 2.864 1.809 6.023 3.111 7.136 1.292 1.104 2.335 3.269 2.335 4.82 0 1.556 1.066 4.184 2.373 5.851 1.304 1.668 2.373 3.776 2.373 4.678 0 .916 1.339 3.476 2.976 5.691s2.976 4.971 2.976 6.135c0 1.151 1.066 2.678 2.373 3.373s2.373 2.375 2.373 3.736c0 1.352 1.339 4.053 2.976 5.994s2.976 4.206 2.976 5.044c0 .822 1.066 2.469 2.373 3.655s2.373 2.776 2.373 3.54c0 .763 1.339 2.55 2.976 3.971s2.976 3.313 2.976 4.193c0 .883 1.066 2.574 2.373 3.758s2.373 2.673 2.373 3.313c0 .636 1.198 2.338 2.673 3.783s4.018 4.347 5.648 6.464c1.631 2.112 4.471 5.545 6.3 7.629 5.991 6.801 6.375 7.322 7.136 9.425.41 1.151 1.574 2.085 2.565 2.085 1.007 0 1.817.493 1.817 1.098 0 1.433 14.124 15.545 15.545 15.545.596 0 1.098.803 1.098 1.782s.513 1.782 1.146 1.782c.634 0 2.096 1.01 3.266 2.239 1.17 1.241 5.872 5.24 10.454 8.898s9.411 7.733 10.741 9.049c1.337 1.321 2.947 2.399 3.595 2.399s2.091 1.066 3.219 2.373 2.749 2.373 3.624 2.373c.869 0 2.843 1.339 4.383 2.976s3.516 2.976 4.399 2.976c.886 0 1.903.775 2.276 1.715.354.939 2.22 2.044 4.117 2.467s4.133 1.715 4.958 2.877c.822 1.157 2.824 2.517 4.455 3.031s3.924 1.913 5.099 3.141c1.165 1.226 3.086 2.232 4.271 2.232 1.181 0 3.083 1.042 4.236 2.311 1.151 1.273 3.68 2.655 5.616 3.078s3.783 1.48 4.112 2.326c.327.859 2.419 1.901 4.629 2.316 2.228.418 4.88 1.603 5.91 2.633s4.112 2.375 6.853 2.99c2.744.617 5.854 1.91 6.934 2.888s4.018 2.091 6.558 2.49c2.534.399 5.883 1.715 7.446 2.923s4.253 2.192 5.994 2.192 5.279 1.095 7.868 2.42c2.593 1.339 7.122 2.744 10.06 3.125s6.952 1.638 8.91 2.792c2.2 1.292 6.989 2.287 12.527 2.62 5.381.322 10.13 1.292 11.885 2.442 2.008 1.304 7.216 2.156 16.603 2.708 8.588.505 15.21 1.527 17.836 2.749 5.492 2.561 68.602 2.899 71.634.394 1.042-.867 8.156-2.053 16.474-2.768 8.203-.697 16.153-2.029 18.074-3.019 1.881-.966 7.661-2.187 12.856-2.713 5.381-.54 10.31-1.715 11.472-2.721 1.117-.966 4.911-2.091 8.438-2.482s7.31-1.527 8.409-2.534c1.104-1.002 4.534-2.283 7.606-2.859 3.078-.582 6.511-1.85 7.639-2.824s4.069-2.138 6.558-2.593c2.49-.446 5.569-1.856 6.84-3.125 1.273-1.273 3.83-2.316 5.696-2.316 1.87 0 4.347-1.057 5.529-2.373 1.186-1.304 3.031-2.373 4.112-2.373s3.783-1.339 5.994-2.976c2.215-1.631 5.005-2.976 6.213-2.976s2.486-.783 2.851-1.75c.365-.963 2.49-2.407 4.722-3.215s4.05-1.885 4.05-2.399c0-.513 1.87-1.715 4.159-2.668s4.159-2.2 4.159-2.768c0-.564 1.739-1.95 3.866-3.078 6.84-3.635 9.237-5.146 11.329-7.116 5.71-5.386 14.959-13.377 16.464-14.241 3.647-2.085 25.56-25.099 32.541-34.189 1.631-2.132 4.173-5.052 5.648-6.484s2.673-3.159 2.673-3.823c0-.665.827-1.901 1.856-2.744 1.014-.848 2.601-3.313 3.501-5.492.915-2.183 2.215-3.962 2.899-3.962 1.881 0 1.503-2.096-.827-4.629-2.137-2.311-4.582-5.287-9.801-11.916-1.631-2.077-4.173-5.159-5.648-6.861s-2.673-3.501-2.673-4.005c0-.497-2.124-3.229-4.722-6.071-9.049-9.88-11.92-13.42-11.92-14.641 0-.681-1.066-1.903-2.373-2.713s-2.373-2.268-2.373-3.219c0-.959-1.066-2.308-2.373-3.003s-2.373-1.809-2.373-2.467c0-.652-2.185-3.449-4.853-6.194-2.665-2.749-5.62-6.476-6.567-8.278-.944-1.802-2.2-3.266-2.796-3.266s-1.428-1.09-1.85-2.42-1.929-3.632-3.353-5.104c-5.656-5.9-11.619-13.063-12.888-15.487-.728-1.399-2.061-2.983-2.939-3.501-.883-.526-1.616-1.527-1.616-2.235s-1.198-2.486-2.673-3.954c-1.476-1.468-4.018-4.3-5.648-6.308s-4.173-5.044-5.648-6.746c-1.476-1.715-2.673-3.877-2.673-4.825 0-3.141-7.995 1.721-15.449 9.425-2.283 2.364-4.702 4.3-5.362 4.3s-1.862 1.082-2.686 2.386-2.279 2.373-3.262 2.373c-.974 0-1.769.43-1.769.955 0 1.292-14.611 13.127-22.291 18.034-3.433 2.195-6.237 4.38-6.237 4.84s-1.739 1.543-3.866 2.407c-2.128.864-4.297 2.263-4.817 3.122-.526.856-1.651 1.556-2.502 1.556-.856 0-2.99 1.339-4.762 2.976s-4.232 2.976-5.477 2.976-2.837 1.05-3.516 2.326-3.074 2.665-5.306 3.083c-2.232.418-4.347 1.48-4.676 2.371-.343.878-2.784 2.185-5.428 2.896-2.655.716-4.817 1.795-4.817 2.394s-2.279 1.707-5.052 2.442c-2.781.735-5.9 2.091-6.93 3.015-1.03.916-4.394 2.138-7.473 2.713-3.078.582-6.511 1.853-7.639 2.832s-4.856 2.044-8.297 2.351c-3.441.305-7.18 1.385-8.321 2.373-6.675 5.819-75.993 5.975-82.453.175-1.057-.959-4.676-2.168-8.031-2.702-3.36-.534-7.032-1.787-8.175-2.796s-3.942-2.22-6.229-2.697c-2.283-.478-5.115-1.87-6.285-3.106-1.165-1.234-3.13-2.232-4.372-2.232s-2.984-.728-3.877-1.623c-.896-.899-3.341-2.514-5.428-3.595-2.091-1.085-3.803-2.426-3.803-2.995 0-.564-1.245-1.339-2.764-1.718-2.585-.644-6.37-3.484-12.135-9.096-1.337-1.292-2.796-2.356-3.254-2.356-2.601 0-32.786-32.684-34.674-37.533-.62-1.578-1.574-2.885-2.138-2.885-.556 0-1.806-1.87-2.753-4.159s-2.239-4.159-2.864-4.159-1.686-2.089-2.373-4.629-1.997-4.911-2.904-5.271c-.915-.352-2.044-2.414-2.514-4.582-.478-2.172-1.856-5.218-3.078-6.782s-2.228-4.165-2.228-5.804c0-1.626-1.007-4.629-2.228-6.675-1.226-2.044-2.561-6.34-2.983-9.566-.413-3.219-1.626-6.826-2.702-8.012-1.404-1.551-2.164-5.593-2.741-14.547-.508-8.034-1.388-13.131-2.51-14.462-2.486-2.99-2.51-45.553-.023-48.54 1.066-1.292 2.021-6.652 2.585-14.55.601-8.438 1.48-13.154 2.686-14.499.987-1.09 2.168-4.911 2.617-8.513s1.621-7.451 2.608-8.576c.971-1.117 2.235-4.535 2.808-7.592s1.782-6.146 2.701-6.885c.915-.728 2.008-3.36 2.45-5.848.438-2.486 1.559-4.817 2.497-5.175.934-.354 2.279-2.764 2.971-5.346.692-2.577 2.042-4.992 2.984-5.35.947-.362 1.715-1.631 1.715-2.819 0-1.194 1.261-3.672 2.804-5.522s3.172-4.515 3.607-5.927c.446-1.412 1.583-2.864 2.542-3.226.962-.365 1.739-1.289 1.739-2.042 0-1.492 4.582-7.239 11.916-14.97 2.601-2.733 4.723-5.505 4.723-6.162s1.066-1.527 2.373-1.95c1.304-.413 2.386-1.386 2.407-2.16.016-.775 1.925-3.011 4.252-4.968s6.989-6.126 10.369-9.244c9.204-8.497 9.483-8.72 12.693-10.369 1.631-.838 3.406-2.251 3.924-3.13.526-.883 1.651-1.616 2.502-1.616.856 0 2.99-1.339 4.762-2.976s4.159-2.976 5.334-2.976c1.17 0 3.051-1.01 4.173-2.26 1.125-1.245 3.874-2.608 6.09-3.023 2.232-.418 4.49-1.563 5.047-2.534s3.103-2.091 5.676-2.49 5.648-1.551 6.821-2.569c1.194-1.03 5.757-2.235 10.318-2.729 4.498-.486 9.51-1.742 11.117-2.796 4.292-2.808 43.691-2.796 47.974.021 1.621 1.057 6.638 2.18 11.44 2.529 5.381.399 9.66 1.425 11.571 2.749 1.667 1.157 5.851 2.507 9.292 2.983 3.454.473 6.547 1.574 6.882 2.431.33.867 2.655 1.913 5.155 2.335 2.51.426 5.484 1.806 6.627 3.063 1.146 1.256 3.262 2.287 4.702 2.287s3.946 1.038 5.561 2.303c1.616 1.269 4.372 2.66 6.135 3.111 1.762.446 3.742 1.809 4.402 3.043s2.308 2.235 3.655 2.235c1.352 0 4.053 1.339 5.994 2.976s4.173 2.976 4.958 2.976 2.338 1.066 3.456 2.373c1.117 1.304 2.749 2.373 3.616 2.373s2.749 1.339 4.159 2.976 3.125 2.976 3.783 2.976c.66 0 2.215.934 3.454 2.085s4.206 3.413 6.592 5.052c4.253 2.92 12.593 9.885 18.163 15.158 1.551 1.476 3.305 2.673 3.886 2.673s1.762.947 2.612 2.096c.859 1.151 2.89 2.984 4.531 4.069 1.631 1.09 7.462 6.292 12.95 11.571 5.484 5.283 10.177 9.598 10.425 9.598s9.125-8.89 19.733-19.762c10.604-10.867 33.594-34.196 51.085-51.832s31.799-32.502 31.799-33.006c0-.501 1.066-1.198 2.373-1.54 3.242-.848 3.086-5.641-.303-9.431-6.417-7.18-9.212-10.741-9.212-11.734 0-.587-.934-2.089-2.085-3.322s-3.413-3.814-5.052-5.71c-9.989-11.627-19.155-21.787-24.073-26.706-3.106-3.106-5.648-6.202-5.648-6.885s-.433-1.241-.962-1.241c-1.527 0-9.746-7.912-9.746-9.378 0-.728-.672-1.339-1.48-1.356-1.316-.023-8.616-6.174-17.632-14.84-1.691-1.621-3.564-2.952-4.168-2.952s-1.762-1.066-2.585-2.373c-.822-1.304-2.013-2.373-2.657-2.373-.649 0-2.192-.934-3.441-2.085-1.245-1.151-4.253-3.413-6.691-5.052-2.431-1.631-5.62-4.173-7.088-5.648s-3.322-2.673-4.138-2.673c-.816 0-3.066-1.339-5.005-2.976s-4.3-2.976-5.226-2.976c-.926 0-1.691-.561-1.691-1.245s-2-2.089-4.455-3.098c-2.454-1.014-4.856-2.537-5.334-3.369-.486-.835-2.316-1.885-4.065-2.326-1.762-.446-4.507-1.838-6.122-3.106-1.616-1.266-3.843-2.303-4.958-2.303s-2.937-1.01-4.053-2.232c-1.104-1.229-3.83-2.522-6.041-2.888s-5.132-1.762-6.487-3.125c-1.352-1.352-3.854-2.467-5.55-2.467s-4.441-1.066-6.101-2.373c-1.667-1.304-4.75-2.373-6.861-2.373s-5.159-1.042-6.782-2.316c-1.619-1.269-5.731-2.681-9.149-3.13-3.417-.446-7.028-1.631-8.015-2.625-1.114-1.117-5.287-2.112-10.951-2.608-5.14-.446-10.438-1.646-12.089-2.725-2.056-1.341-7.196-2.16-17.199-2.733-7.843-.446-16.066-1.54-18.268-2.439-5.445-2.215-47.848-2.138-53.044.099z"/>
</svg>