<svg height="200" xmlns="http://www.w3.org/2000/svg" viewBox="0 0 3424 1024">
  <path fill="currentColor" d="M3243.304 842.478h-123.637l-183.881-481.853h139.485l104.624 299.583 104.61-299.583h139.514l-180.716 481.853zm-385.192-63.405c-95.119 96.685-248.884 96.685-345.585 3.171-23.772-23.767-42.813-52.307-55.484-84-12.684-31.711-19.026-66.576-19.026-99.856 0-34.882 6.342-69.747 19.026-101.441 12.67-30.126 30.129-57.062 52.32-80.846 22.19-22.18 49.127-41.207 77.674-53.892 30.115-12.667 63.393-19.009 95.104-19.009 33.293 0 64.989 6.342 96.701 17.424 28.533 11.099 55.469 28.54 77.674 52.305 22.19 23.784 41.217 50.721 52.305 80.846 12.684 33.28 19.041 68.145 19.041 104.611 0 34.864-6.357 68.145-19.041 99.856-11.089 30.109-28.533 57.062-50.709 80.829zm-61.839-234.577c-6.328-15.855-14.252-30.125-26.937-41.207-11.103-11.099-23.787-20.613-39.635-26.955-30.115-12.684-64.989-12.684-95.119 0-14.266 6.342-28.533 14.27-38.038 26.955-11.089 12.667-20.594 25.352-25.355 41.207-6.357 17.424-9.535 34.864-9.535 53.892 0 17.424 3.178 34.864 9.535 52.307 6.342 15.838 14.266 30.109 25.355 41.207 11.103 11.1 23.772 20.613 38.038 26.938 14.266 6.342 31.711 9.514 47.559 9.514 15.862 0 31.711-3.171 47.559-9.514 14.252-6.325 28.533-15.838 39.635-26.938 11.089-12.684 20.608-25.369 26.937-41.207 12.684-33.298 12.684-71.333 0-106.198zm-505.679 297.982-98.283-174.358-85.598 112.539v61.82h-123.637V170.428h123.637v424.79l182.299-231.421h141.082l-160.108 199.71 160.108 280.558-139.5-1.586zM1815.03 514.371c-7.924-9.496-15.848-19.009-26.937-25.352-9.507-6.344-20.608-12.685-31.697-15.857-11.117-3.171-23.787-4.756-34.889-4.756-15.848 0-33.279 3.171-47.545 11.099-14.28 6.344-28.547 17.442-38.053 28.524-11.103 12.684-20.608 28.54-25.355 44.395-6.342 17.423-9.521 38.036-9.521 57.062 0 15.838 3.178 31.694 9.521 47.549 6.328 14.253 14.252 26.938 25.355 38.036 11.089 11.1 23.772 20.595 38.053 25.352 25.355 11.1 55.469 12.684 82.434 4.758 11.089-3.171 22.19-7.929 31.697-14.253 9.507-6.342 19.012-14.269 25.355-22.198 7.924-9.514 14.266-19.026 19.026-30.108l90.358 90.341c-11.103 15.838-23.772 30.109-39.635 44.378-14.252 12.685-30.101 23.767-47.559 33.28-17.43 9.514-34.86 15.855-53.887 20.613-19.012 4.756-39.635 6.342-58.661 6.342-33.279 0-64.989-6.342-95.104-19.026-58.661-25.352-106.206-71.316-131.561-129.964-12.698-30.125-19.041-61.818-19.041-95.099 0-34.882 6.342-69.747 19.041-103.044 12.67-31.694 30.115-58.631 52.291-84 22.19-23.765 49.156-42.792 77.689-57.062 30.115-14.269 61.825-20.594 95.104-20.594 20.608 0 39.649 3.171 58.661 7.91 39.62 9.514 74.51 30.126 103.028 58.648 14.266 14.269 28.533 30.125 38.038 49.134l-90.344 90.36c-1.596-15.855-7.939-26.954-15.862-36.466zm-584.924 213.982h14.263c11.096 0 23.774-1.586 34.867-4.758 11.096-3.171 22.189-7.927 31.716-14.252 19.019-12.684 34.867-30.126 44.378-52.307l90.357 90.342c-11.096 15.855-23.774 30.108-39.623 44.378-14.28 12.684-30.131 23.784-47.564 33.28-17.434 9.514-34.867 15.855-53.905 20.611-20.603 4.758-41.207 6.342-60.226 6.342-64.998 0-128.41-25.369-174.373-71.333-22.188-23.765-41.224-50.721-52.318-80.827-12.68-31.711-19.019-66.577-19.019-103.026 0-36.468 6.34-71.333 19.019-104.611 23.79-60.235 71.338-107.784 131.581-131.566 30.112-12.667 63.394-19.009 95.11-19.009 20.604 0 39.623 1.585 58.641 7.927 57.073 14.253 107.807 49.136 142.677 98.27l-229.862 277.37c4.772 1.585 9.527 3.171 14.28 3.171zm47.547-256.775c-4.755-1.586-11.094-3.171-17.433-4.758-6.34 0-11.094-1.585-17.434-1.585-15.848 0-31.716 3.171-47.564 9.514-14.265 6.342-28.529 14.27-38.037 26.955-11.096 11.081-20.604 25.352-25.359 41.207-6.357 17.423-9.527 34.864-9.527 53.892v15.838c0 6.342 1.585 11.099 1.585 17.44s1.585 11.1 3.187 17.442c1.585 4.758 3.17 9.514 6.34 14.252l144.243-190.197zm-464.461 96.685c1.585-12.667-1.585-23.767-6.34-36.451-9.509-22.198-26.944-39.62-49.149-49.136-11.096-4.756-23.774-7.927-34.867-7.927-38.037 0-71.338 22.198-85.602 57.062-4.755 11.1-7.924 23.784-7.924 36.451v274.214H507.255V170.425H629.31v212.396c14.263-11.1 28.529-19.026 45.979-23.784 15.849-4.756 31.698-6.342 47.548-6.342 28.529 0 57.072 4.758 84.016 17.442 25.359 11.099 49.15 26.954 68.168 45.963 19.019 20.613 34.867 42.793 45.963 68.162 11.094 26.938 17.433 55.478 17.433 84v274.214h-123.64l-1.585-274.214zm-473.971-53.892c-7.924-9.496-15.848-19.009-26.961-25.352-9.509-6.344-20.603-12.685-31.698-15.857s-23.772-4.756-34.867-4.756c-15.848 0-33.301 3.171-47.564 11.099-14.263 6.344-28.529 17.442-38.037 28.524-11.094 11.099-20.604 26.954-26.961 42.809-6.34 17.424-9.51 38.036-9.51 57.062 0 15.838 3.17 31.694 9.51 47.551 6.357 14.252 14.28 26.937 25.376 38.036 11.094 11.099 23.772 20.594 38.037 25.352 25.359 11.099 55.49 12.684 82.431 4.756 11.096-3.171 22.189-7.927 31.698-14.252 9.528-6.342 19.036-14.27 25.376-22.198 7.924-9.514 14.265-19.026 19.019-30.109l90.355 90.342c-11.094 15.855-23.772 30.108-39.622 44.378-14.28 12.684-30.131 23.784-47.564 33.28-17.434 9.514-34.867 15.855-53.905 20.611-19.018 4.758-39.622 6.342-58.641 6.342-33.301 0-64.998-6.342-95.11-19.026C91.924 807.611 44.36 761.647 19.001 703 6.322 672.874-.018 641.18-.018 607.9c0-34.882 6.34-69.747 19.019-103.025 12.679-31.713 30.131-58.648 52.319-84.017 22.188-23.767 49.132-42.793 77.678-57.062 30.112-14.253 61.809-20.595 95.11-20.595 20.604 0 39.623 3.171 58.641 7.929 39.639 9.496 74.507 30.108 103.052 58.63 14.265 14.27 28.529 30.126 38.037 49.136l-90.355 90.36c0-14.27-6.341-25.369-14.265-34.882z"/>
</svg>