<svg xmlns="http://www.w3.org/2000/svg" viewBox="0 0 400 270.327">
    <path fill="currentColor" fill-rule="evenodd" d="M360.414 4.722c-2.968 1.073-4.814 1.971-4.939 2.403-.317 1.091-3.527 18.908-4.096 22.734l-.514 3.46-2.907-5.333c-5.84-10.715-8.522-15.314-8.93-15.314-.372 0-8.739 2.945-9.064 3.19-.097.073 18.577 31.076 19.138 31.774.249.309 8.023-2.804 8.302-3.324.326-.604 8.386-39.859 8.384-40.827-.002-.709.033-.717-5.374 1.237m-77.309 13.363c-3.549 1.276-4.326 1.708-4.313 2.401.009.464.544 4.603 1.189 9.196s1.065 8.289.934 8.214c-12.95-7.434-25.924 6.96-21.58 23.943 3.693 14.438 17.676 18.514 25.195 7.345l1.319-1.961.37 1.619.37 1.618 4.562-1.708c4.39-1.644 4.553-1.75 4.332-2.812-.318-1.531-6.993-48.216-6.993-48.907 0-.796-.53-.693-5.385 1.052m27.874 3.67c-11.776 4.532-16.428 17.583-10.458 29.336 7.159 14.092 28.129 10.547 31.887-5.39.685-2.907.744-2.88-4.348-2.007l-4.361.747-.514 1.921c-1.796 6.716-10.423 7.717-13.35 1.549-.883-1.859-2.358-1.059 10.697-5.802 13.089-4.756 11.82-3.897 10.919-7.39-2.977-11.555-10.974-16.619-20.472-12.964m7.265 7.792c1.338.882 3.186 3.609 3.19 4.707.002.487-1.734 1.299-6.228 2.915l-6.758 2.433c-.89.324-.678-4.707.275-6.567 2.022-3.942 6.4-5.545 9.521-3.488M202.6 36.675c-1.783 1.971-.621 3.144 3.463 3.495 6.235.536 8.703 3.824 5.559 7.406-.694.79-1.376 1.892-1.515 2.448-.16.637-.67 1.114-1.379 1.288-2.076.511-4.658 2.324-6.031 4.236-2.546 3.545-3.331 2.306-3.331-5.256 0-7.101-.08-7.209-5.397-7.209-4.136 0-5.585.603-5.585 2.324 0 1.462 1.509 2.323 4.072 2.323h2.193l.141 4.997c.16 5.646 1.024 7.538 4.014 8.787 2.623 1.096 39.837.641 41.372-.505 2.578-1.926 2.896-2.784 3.048-8.24l.141-5.039h2.194c2.563 0 4.071-.861 4.071-2.323 0-1.721-1.449-2.324-5.585-2.324-5.316 0-5.397.108-5.397 7.209 0 7.141-.94 8.997-2.887 5.697-.985-1.67-3.712-3.778-5.761-4.454-.904-.299-1.579-.892-1.902-1.67-.275-.664-.96-1.639-1.522-2.167-3.082-2.896.338-7.113 6.069-7.485 5.754-.373 5.726-4.31-.031-4.31-5.54 0-9.308 2.174-10.983 6.336-1.02 2.535-3.658 3.231-4.037 1.065-.919-5.249-11.864-10.087-14.994-6.629m76.509 7.962c5.741 4.252 5.919 17.524.278 20.719-5.775 3.271-11.172-2.291-11.172-11.514 0-8.167 5.744-13.02 10.894-9.205m80.014 9.227c-12.535 2.722-24.365 13.562-28.972 26.547-.24.677-.493.513-1.756-1.141-10.774-14.111-35.289-6.626-47.132 14.391-1.38 2.449-1.432 2.385-2.054-2.531-.302-2.381-.665-4.64-.808-5.019-.426-1.132-22.435 7.032-22.435 8.323 0 .505 2.1 15.435 4.666 33.179 2.566 17.743 5.556 38.485 6.645 46.093 1.302 9.101 2.147 13.834 2.47 13.834.271 0 5.683-1.901 12.027-4.224a2714.859 2714.859 0 0 1 11.576-4.224c.022 0-1.652-11.547-3.721-25.66-5.059-34.513-5.167-39.739-1.001-48.249 4.926-10.061 15.912-13.946 20.439-7.229 1.699 2.521 1.941 3.901 7.761 44.179 2.114 14.636 3.905 26.673 3.978 26.75.32.332 23.861-8.542 23.861-8.995 0-.277-1.54-11.038-3.423-23.913-4.955-33.891-5.039-41.018-.59-50.08 5.538-11.281 18.747-14.127 21.279-4.586.568 2.14 1.702 9.627 6.429 42.436 2.091 14.511 3.84 26.42 3.887 26.464.163.152 23.319-8.386 23.698-8.738.227-.211.177-1.598-.124-3.417-.278-1.683-2.3-15.497-4.494-30.697-4.031-27.925-4.725-32.254-5.931-36.963-3.268-12.767-13.619-19.279-26.275-16.53M201.806 65.787c-1.097 1.251-2.017 3.382-2.017 4.672 0 1.16-.119 1.243-2.112 1.479-6.427.761-12.827 8.066-9.901 11.301 1.668 1.842 4.531.527 5.067-2.328.155-.826.418-1.502.586-1.502.167 0 .545-.451.84-1.002.816-1.525 5.304-2.642 5.733-1.427.102.29.367 2.999.588 6.019.221 3.02.524 5.806.675 6.19.205.526-.032.766-.96.97-3.133.688-4.74 4.011-4.74 9.798v3.95h-1.929c-2.896 0-4.387.961-4.4 2.836-.01 1.429 1.236 1.81 5.909 1.81 5.605 0 5.39.277 5.561-7.152.124-5.371.226-6.075.959-6.61 1.127-.824 1.046-.855 4.015 1.529 8.417 6.755 19.075 6.753 26.791-.004 1.479-1.296 2.73-2.078 3.097-1.937.338.129.767.236.953.236.698 0 1.283 3.917 1.283 8.589 0 5.712-.385 5.349 5.671 5.349 3.663 0 4.443-.119 5.034-.772 1.632-1.804-.401-3.873-3.806-3.873l-2.182-.001-.141-4.981c-.16-5.655-.763-6.972-3.841-8.391-1.435-.662-1.565-.856-1.357-2.022.127-.71.394-3.542.593-6.293.415-5.738.542-5.97 3.04-5.548 2.282.386 4.188 2.23 5.013 4.849 1.134 3.598 5.07 3.693 5.07.122 0-4.667-4.475-8.828-10.417-9.688-1.622-.234-1.78-.372-2.038-1.786-.154-.842-.555-1.959-.892-2.482-.336-.522-.483-.95-.326-.95.157 0-.153-.38-.689-.845-1.418-1.23-33.658-1.328-34.73-.105m-78.892 38.652c-6.388 2.347-11.685 4.319-11.77 4.381-.159.117 1.601 12.538 10.499 74.073 2.805 19.398 5.753 39.81 6.552 45.359.798 5.549 1.526 10.163 1.617 10.254.131.131 23.42-8.186 23.838-8.513.062-.048-.801-6.435-1.918-14.192l-2.031-14.104 5.021-9.296c2.761-5.113 5.159-9.443 5.328-9.623.169-.18 5.978 7.328 12.909 16.684 6.931 9.356 12.904 17.33 13.274 17.72.605.637 15.924-4.343 23.578-7.665.883-.384-.255-1.906-18.483-24.72l-19.423-24.312.9-1.784c.494-.982 5.745-10.965 11.668-22.185 5.923-11.22 10.694-20.476 10.602-20.568-.092-.093-7.073 2.34-15.513 5.406l-15.346 5.573-7.446 15.206c-4.095 8.363-8.497 17.362-9.783 19.997l-2.336 4.791-4.755-33.091c-2.615-18.2-4.75-33.233-4.744-33.408.018-.489.08-.51-12.238 4.017m98.839 1.597a3126.769 3126.769 0 0 0-11.572 4.305c-.339.138 1.62 14.204 10.476 75.213 1.477 10.174 2.786 18.6 2.91 18.724.123.123 5.566-1.719 12.096-4.094l11.871-4.318-.23-1.312c-.126-.722-2.037-13.857-4.247-29.19-2.21-15.332-5.152-35.706-6.537-45.275-1.385-9.569-2.518-17.6-2.518-17.846 0-.719-.5-.564-12.249 3.793M51.954 130.114c-37.436 4.541-58.607 31.969-45.443 58.874 6.864 14.03 15.475 17.85 44.809 19.88 22.073 1.527 25.561 2.661 28.586 9.295 4.568 10.019-4.663 20.343-22.347 24.994-12.334 3.245-18.994.483-24.046-9.972-1.125-2.328-2.235-4.239-2.468-4.248-.232-.009-5.515 2.125-11.741 4.742l-11.318 4.758.237 1.267c1.157 6.189 9.556 17.906 15.808 22.056 19.059 12.651 59.541 2.516 74.598-18.677 12.766-17.966 9.214-42.684-7.605-52.925-5.895-3.59-14.267-5.184-34.806-6.627-20.936-1.47-25.104-2.855-27.97-9.297-3.644-8.188 2.277-15.955 15.439-20.251 11.386-3.717 21.165-.532 25.645 8.352.488.969.931 1.813.984 1.875.094.11 23.529-9.567 23.8-9.828.223-.213-1.6-3.607-3.629-6.758-8.138-12.635-23.012-19.393-38.533-17.51"/>
</svg>