<svg xmlns="http://www.w3.org/2000/svg" viewBox="0 0 1024 1024">
  <path fill="currentColor" d="M503.011 69.434c-2.688 1.128-6.9 2.079-9.365 2.111-2.54.029-5.048.75-5.8 1.647-.727.872-4.02 3.379-7.311 5.568-3.299 2.192-11.427 9.341-18.077 15.892-38.56 38.022-51.689 51.337-51.689 52.438 0 .68-.973 2.361-2.171 3.734-2.918 3.363-2.734 7.876.563 13.499 4.314 7.365 72.508 75.145 80.286 79.795 3.74 2.24 6.981 4.557 12.023 8.589 2.696 2.159 5.692 2.327 7.59.424 2.759-2.752 18.259-2.785 22.137-.036 1.473 1.043 4.206 1.901 6.073 1.901 2.012 0 4.188.881 5.355 2.171 1.083 1.195 3.276 2.171 4.882 2.171s3.807.973 4.882 2.171c1.083 1.195 2.523 2.171 3.202 2.171 3.359 0 26.641 22.59 26.641 25.843 0 1.158.734 2.711 1.63 3.458.902.75 1.63 3.115 1.63 5.307 0 2.174.973 5.775 2.171 7.999 1.195 2.228 2.171 5.442 2.171 7.143 0 1.71.972 3.969 2.171 5.053 1.516 1.368 2.171 3.343 2.171 6.515 0 2.988-.746 5.406-2.171 7.05-2.854 3.29-2.94 10.189-.152 12.145 1.106.782 2.374 2.571 2.819 3.974 1.134 3.584 1.417 3.89 30.199 33.101 14.201 14.411 28.877 29.373 32.631 33.251 9.116 9.427 19.823 18.787 22.737 19.87 1.302.48 2.752 1.584 3.242 2.441.699 1.251 4.086 1.567 17.04 1.567 17.052 0 19.232.528 28.318 6.891 1.408.983 4.095 1.793 5.975 1.793s4.03.731 4.768 1.62c.741.893 3.242 2.132 5.558 2.752 2.314.626 4.212 1.573 4.212 2.101 0 .531.938 1.269 2.084 1.636 1.142.361 4.762 3.935 8.038 7.939s9.125 10.543 12.99 14.538l7.032 7.256 30.385.337c27.13.301 30.611.535 32.488 2.234 1.151 1.043 2.946 1.901 3.98 1.901 2.374 0 5.581 1.672 10.422 5.435 2.085 1.627 5.021 3.322 6.511 3.77s3.445 1.421 4.342 2.171c.896.75 5.415 1.656 10.038 2.029 4.627.366 10.18 1.414 12.341 2.311 3.168 1.322 9.467 1.64 32.626 1.64h28.697l3.998-2.94c2.196-1.618 4.1-2.982 4.234-3.036s-.34-2.029-1.04-4.383c-2.956-9.91-18.26-25.756-209.088-216.436C548.39 79.063 545.858 76.583 541.229 75.429c-1.624-.406-3.68-1.364-4.576-2.14s-3.969-1.654-6.824-1.961c-2.863-.306-6.073-1.345-7.143-2.307-2.699-2.444-13.396-2.219-19.673.417zM344.529 214.838c-6.176 3.211-26.345 23.15-195.523 193.272-34.186 34.379-63.966 64.652-66.181 67.284-7.967 9.458-9.533 11.633-9.533 13.202 0 .874-.973 2.838-2.171 4.357-1.195 1.521-2.171 3.216-2.171 3.779s-.973 2.143-2.171 3.524c-3.14 3.613-3.14 16.15 0 18.988 1.195 1.083 2.171 2.794 2.171 3.804s.973 2.965 2.171 4.338c1.195 1.373 2.171 3.538 2.171 4.808s.973 3.141 2.171 4.164 2.171 2.918 2.171 4.22c0 1.299.754 3.136 1.684 4.08 6.923 7.084 27.085 27.209 29.508 29.472 1.644 1.529 5.442 5.438 8.435 8.682 2.994 3.242 7.876 8.13 10.853 10.865s14.313 14.088 25.206 25.229c10.885 11.145 20.227 20.261 20.76 20.261s3.343 2.807 6.251 6.241c2.91 3.43 7.45 8.196 10.091 10.583s10.946 10.645 18.448 18.354c7.501 7.705 15.091 15.275 16.872 16.817 3.401 2.949 6.251 5.82 15.29 15.421 3.028 3.211 6.929 7.11 8.682 8.668 1.751 1.557 9.411 9.128 17.023 16.817 7.616 7.697 15.186 15.285 16.817 16.87 1.64 1.584 9.422 9.395 17.293 17.366s19.752 19.861 26.389 26.427c6.642 6.566 14.202 14.136 16.806 16.817s7.086 7.143 9.963 9.898c2.879 2.756 10.68 10.574 17.329 17.366 6.649 6.795 14.467 14.662 17.366 17.488s6.585 6.61 8.184 8.412c4.688 5.253 15.925 4.53 18.291-1.176.715-1.735 1.726-3.149 2.24-3.149s1.23-1.188 1.589-2.637c.361-1.446 1.593-3.474 2.736-4.51 1.139-1.028 2.075-2.358 2.075-2.94 0-.586 1.954-3.191 4.342-5.775 2.387-2.588 4.342-5.295 4.342-6.008 0-.708.826-2.206 1.837-3.322 1.615-1.786 1.846-5.197 1.901-28.321.06-25.579.132-26.377 2.504-29.403 1.345-1.707 2.441-3.752 2.441-4.548 0-.794 1.098-2.008 2.441-2.696 8.283-4.252 13.915-19.687 8.006-21.95-.814-.311-1.818-1.906-2.231-3.532s-2.381-4.97-4.383-7.418c-2.017-2.462-3.992-6.382-4.431-8.788-.436-2.387-1.458-5.307-2.266-6.478-2.238-3.252-2.029-23.173.279-26.468.969-1.373 1.921-4.882 2.135-7.793.267-3.767 1.405-6.804 3.941-10.539 1.964-2.889 4.056-6.031 4.651-6.986s2.672-4.008 4.612-6.783c1.938-2.778 3.53-5.438 3.53-5.918s3.052-3.641 6.783-7.037c9.464-8.61 9.275-8.421 12.252-12.218 1.473-1.876 2.672-4.482 2.672-5.8 0-1.307.973-3.627 2.171-5.142 3.418-4.342 3.418-214.782 0-217.869-1.195-1.083-2.171-2.593-2.171-3.363 0-3.196-5.692-11.728-10.994-16.489-9.753-8.752-15.047-15.075-15.047-17.969 0-.92-.614-2.065-1.362-2.54-1.714-1.091-7.32-9.311-7.32-10.724 0-.584-.973-1.892-2.171-2.917-1.428-1.227-2.192-3.252-2.222-5.937-.028-2.247-.484-8.719-1.013-14.388s-1.488-16.592-2.14-24.263l-1.186-13.953-8.388-8.574c-10.371-10.597-11.367-11.728-12.758-14.48-.614-1.214-2.321-2.803-3.8-3.521-2.625-1.281-3.722-2.289-13.381-12.257-2.603-2.688-6.446-6.35-8.538-8.142-2.088-1.793-5.327-5.517-7.192-8.276s-4.485-5.76-5.839-6.665c-1.353-.909-5.787-4.87-9.861-8.811s-8.709-7.489-10.311-7.883c-1.596-.394-3.881-1.331-5.078-2.085-1.807-1.142-2.807-1.04-6.017.626zm208.738 208.635c-1.7 2.631-1.668 200.106.029 203.47.833 1.64 1.822 4.707 2.2 6.812.493 2.736 2.477 5.581 6.926 9.923 3.426 3.353 7.921 8.396 9.98 11.21s4.867 5.635 6.241 6.253c1.5.686 2.489 2.084 2.489 3.53 0 1.313.973 3.639 2.171 5.149 1.195 1.521 2.174 4.393 2.18 6.386.003 1.993.973 5.089 2.162 6.882s2.159 4.975 2.162 7.072c.007 2.095.983 5.641 2.18 7.865 2.64 4.919 2.93 13.292.517 14.644-1.011.568-1.91 3.223-2.307 6.836-.361 3.252-1.507 7.374-2.543 9.166s-1.938 5.089-2 7.335c-.06 2.247-.604 5.006-1.208 6.142-.914 1.698-.426 2.651 2.766 5.463l3.871 3.401 35.339-.286 8.74 8.509c4.808 4.681 10.978 10.625 13.709 13.203 2.736 2.585 5.3 6.001 5.697 7.587.4 1.584 1.373 3.532 2.168 4.329s1.446 2.39 1.446 3.548c0 1.154 2.928 5.715 6.511 10.135s6.511 8.767 6.511 9.665c0 5.143 4.554 8.088 9.229 5.955 1.488-.68 2.706-1.557 2.706-1.954 0-.4 3.299-4.132 7.323-8.299 23.199-23.979 22.927-23.63 23.199-29.624.184-3.931-.235-5.911-1.437-6.866-.929-.743-2.032-2.807-2.45-4.6s-1.507-4.086-2.418-5.096c-2.393-2.651-2.358-26.264.041-28.913 4.246-4.693 4.236-34.869-.016-37.393-.803-.475-1.458-2-1.458-3.379s-.909-3.677-2.015-5.098c-1.106-1.421-2.342-4.367-2.746-6.548-.4-2.18-1.446-4.557-2.327-5.288-.877-.731-1.601-2.857-1.608-4.72-.007-2.585-1.417-4.939-5.95-9.907-3.264-3.584-6.256-7.486-6.646-8.682s-1.62-3.334-2.734-4.755c-1.112-1.421-2.024-4.155-2.024-6.073 0-2.104-.861-4.256-2.171-5.447-1.195-1.083-2.171-3.029-2.171-4.342s-.973-3.258-2.171-4.342c-1.996-1.807-2.171-3.343-2.171-19.099v-17.138l-6.232-4.132c-6.822-4.52-23.068-20.414-23.068-22.569 0-.746-1.954-3.807-4.342-6.804s-4.342-6.28-4.342-7.297c0-1.017-.973-3.085-2.171-4.603-2.017-2.565-2.171-4.405-2.171-25.875 0-27.091.067-26.847-9.815-36.325-4.145-3.977-7.542-7.602-7.542-8.047 0-1.668-6.68-9.173-8.749-9.824-1.179-.376-7.383-6.003-13.79-12.507-14.185-14.397-14.591-14.864-16.156-18.513-.965-2.24-2.282-3.089-5.637-3.659-2.412-.409-4.954-1.43-5.657-2.282-1.584-1.906-7.086-2.029-8.273-.19zm245.453 91.818c-3.071.806-9.954 4.864-13.564 7.987-3.863 3.35-6.193 8.196-6.807 14.185-.785 7.645-4.164 15.147-9.245 20.501-8.28 8.731-5.111 17.815 10.492 30.083 8.803 6.92 14.473 13.078 15.754 17.109.406 1.281 1.452 2.918 2.321 3.641.872.725 1.584 2.168 1.584 3.204s.973 3.136 2.171 4.647c1.195 1.521 2.171 4.071 2.171 5.673s.973 4.151 2.171 5.673c1.704 2.168 2.174 4.411 2.18 10.478.007 5.877.524 8.495 2.162 10.978 1.195 1.805 2.159 5.089 2.162 7.365.007 2.501.969 5.477 2.45 7.593 3.366 4.808 4.272 5.26 6.776 3.426 1.195-.874 3.216-2.044 4.485-2.591 1.271-.547 4.446-3.006 7.053-5.459 2.609-2.453 7.434-6.672 10.73-9.376 10.823-8.892 83.538-83.284 83.538-85.462 0-.814 1.013-2.766 2.25-4.338 5.433-6.91-.34-10.329-18.526-10.979-7.844-.279-13.28-1.088-17.44-2.593-4.609-1.668-7.526-2.035-12.269-1.545-5.282.544-6.698.291-9.37-1.69-1.732-1.281-3.881-2.327-4.778-2.327-.9 0-3.5-1.888-5.784-4.197s-5.193-4.529-6.455-4.923c-1.266-.404-2.895-1.442-3.62-2.311-.725-.872-2.655-1.584-4.294-1.584s-4.218-.973-5.736-2.171c-1.521-1.195-3.464-2.171-4.316-2.171s-2.444-.973-3.528-2.171c-1.083-1.195-3.131-2.171-4.552-2.171s-3.915-.972-5.531-2.152c-3.292-2.416-18.768-3.878-24.648-2.335zm-73.522 74.672c-1.001 1.001-3.863 2.097-6.356 2.441-9.341 1.281-16.908 15.564-11.439 21.6.972 1.073 2.084 3.629 2.48 5.676.638 3.274 5.766 10.609 11.515 16.448 1.043 1.061 1.901 2.6 1.901 3.421s.696 2.081 1.557 2.79c.861.708 1.862 2.67 2.231 4.357s3.331 6.001 6.585 9.588c3.252 3.589 5.911 7.106 5.911 7.814s.973 2.529 2.171 4.044c1.195 1.519 2.171 4.088 2.171 5.721s.973 4.203 2.171 5.721c1.195 1.521 2.171 3.216 2.171 3.776s.973 1.904 2.171 2.978c1.218 1.1 2.171 3.343 2.171 5.105 0 1.728.821 4.701 1.825 6.614 1.306 2.474 1.966 7.125 2.307 16.187.455 12.074.611 12.805 3.156 14.471 3.442 2.254 8.699.397 9.656-3.418.356-1.405 4.252-5.809 8.668-9.792l8.031-7.243v-7.943c0-7.883-5.258-19.045-10.581-22.442-.75-.475-1.362-2.234-1.362-3.902s-.95-3.893-2.111-4.942c-1.945-1.758-2.14-3.743-2.441-24.857l-.33-22.945-4.208-5.971c-7.431-10.539-21.183-22.788-25.587-22.788-1.23 0-3.076-.973-4.095-2.171-2.291-2.676-7.814-2.863-10.327-.353zM544.521 775.594c-9.296.455-12.948 3.307-18.427 14.394-.741 1.491-1.938 3.534-2.672 4.548-1.084 1.491-.983 2.215.527 3.881 1.023 1.128 1.855 2.867 1.855 3.869 0 1.004.973 2.66 2.171 3.687s2.171 2.907 2.171 4.185c0 1.278.973 3.569 2.171 5.086 1.195 1.521 2.171 3.274 2.171 3.906 0 .628 1.853 2.99 4.113 5.253 4.411 4.407 8.911 11.123 8.911 13.292 0 .731.973 2.571 2.171 4.086s2.171 3.839 2.171 5.159c0 1.317.858 3.415 1.901 4.644 1.043 1.239 3.604 4.252 5.692 6.698 4.422 5.193 5.253 6.986 5.362 11.598.039 1.863.75 5.038 1.567 7.053.944 2.323 1.755 10.781 2.234 23.195.413 10.745 1.17 19.962 1.69 20.483 1.473 1.485 6.31-.195 7.03-2.438.356-1.115 6.352-7.586 13.326-14.373s18.317-18.162 25.206-25.264c6.882-7.101 16.301-16.753 20.928-21.438 8.396-8.511 10.694-13.48 7.212-15.634-.655-.409-1.91-2.266-2.778-4.137-2.349-5.032-4.141-8.031-6.16-10.255-.989-1.093-1.805-2.985-1.805-4.199s-.973-3.452-2.171-4.97c-1.195-1.521-2.171-4.224-2.171-6.017 0-6.14-5.339-14.21-13.887-21.005l-7.958-6.322h-10.295c-7.12 0-11.282.515-13.504 1.659-5.721 2.962-10.384 2.406-14.9-1.777-10.129-9.376-10.463-9.501-23.826-8.855zm-64.291 1.909c-1.02 1.227-1.306 10.533-1.182 38.328.156 35.401.083 36.814-2.044 39.515-1.211 1.541-2.203 3.996-2.203 5.45s-.973 3.53-2.171 4.609c-1.195 1.083-2.171 2.835-2.171 3.902s-.442 2.21-.98 2.543c-1.933 1.195-7.699 12.567-7.699 15.189 0 1.473-.614 3.067-1.362 3.541-1.783 1.139-7.32 9.332-7.32 10.832 0 .639-.734 1.77-1.63 2.517-2.174 1.807-2.063 7.014.247 11.226 1.924 3.53 20.802 23.498 22.206 23.498 1.262 0 7.789 4.669 11.817 8.454 2.041 1.918 4.693 3.791 5.883 4.155 1.195.366 2.905 1.297 3.8 2.056 2.46 2.088 13.424 4.005 18.104 3.156 7.072-1.274 7.612-1.918 8.426-9.922.416-4.046 1.449-10.438 2.303-14.205 2.641-11.696 2.196-64.729-.595-70.895-1.182-2.6-2.155-6.087-2.171-7.751-.019-1.855-1.695-5.132-4.363-8.509-2.387-3.022-4.342-6.128-4.342-6.906s-.734-1.695-1.63-2.037c-.925-.358-1.63-1.973-1.63-3.767 0-1.728-.962-4.363-2.135-5.854-3.187-4.049-4.23-18.616-1.714-23.916 2.279-4.804 1.888-7.414-1.362-9.033-4.104-2.047-7.814-6.114-7.814-8.565 0-6.253-12.534-12.131-16.27-7.63z"/>
</svg>