<svg xmlns="http://www.w3.org/2000/svg" viewBox="0 0 400 440.9449">
  <path fill="currentColor" fill-rule="evenodd" d="M185.2 56c-.99.415-2.543.765-3.451.778-.937.012-1.861.275-2.137.608-.268.322-1.481 1.246-2.696 2.052-1.215.807-4.213 3.443-6.663 5.858C156.039 79.311 151.2 84.22 151.2 84.624c0 .25-.36.869-.8 1.376-1.076 1.241-1.007 2.904.207 4.976 1.591 2.715 26.726 27.699 29.593 29.414 1.378.825 2.574 1.68 4.431 3.167.993.796 2.097.858 2.799.157 1.018-1.016 6.729-1.026 8.159-.014.544.385 1.551.7 2.238.7.741 0 1.543.325 1.973.8.398.44 1.208.8 1.8.8.592 0 1.402.36 1.8.8.398.44.929.8 1.181.8 1.237 0 9.819 8.326 9.819 9.526 0 .427.27 1 .6 1.274.332.276.6 1.148.6 1.955 0 .801.36 2.129.8 2.949.44.821.8 2.006.8 2.633 0 .631.357 1.462.8 1.863.558.505.8 1.232.8 2.401 0 1.102-.274 1.992-.8 2.599-1.051 1.212-1.084 3.755-.057 4.477.408.288.876.947 1.04 1.466.417 1.32.522 1.434 11.131 12.201 5.233 5.311 10.645 10.826 12.028 12.256 3.36 3.476 7.308 6.925 8.381 7.323.479.178 1.016.583 1.194.9.259.462 1.506.577 6.282.577 6.286 0 7.089.195 10.437 2.54.518.363 1.51.66 2.204.66.694 0 1.485.269 1.758.597.272.329 1.194.785 2.049 1.016.854.23 1.553.579 1.553.775 0 .197.346.468.769.602.422.134 1.756 1.451 2.964 2.927s3.363 3.887 4.789 5.36l2.593 2.676 11.201.124c10 .11 11.284.198 11.974.823.425.385 1.086.7 1.468.7.876 0 2.056.616 3.842 2.004.77.599 1.85 1.225 2.4 1.39.55.165 1.27.525 1.6.8.33.275 1.995.611 3.701.748 1.705.136 3.752.52 4.549.853 1.168.488 3.489.605 12.026.605h10.577l1.474-1.084c.81-.596 1.512-1.1 1.56-1.12.048-.02-.125-.748-.384-1.616-1.089-3.652-6.732-9.493-77.072-79.78-74.105-74.05-75.037-74.965-76.745-75.391-.598-.149-1.356-.504-1.686-.789-.33-.285-1.462-.61-2.516-.722-1.054-.112-2.238-.495-2.632-.851-.996-.901-4.938-.818-7.252.153m-58.417 53.597c-2.276 1.184-9.711 8.532-72.072 71.241-12.601 12.671-23.579 23.831-24.396 24.8-2.936 3.486-3.515 4.287-3.515 4.866 0 .323-.36 1.046-.8 1.605-.44.56-.8 1.186-.8 1.393 0 .207-.36.791-.8 1.298-1.156 1.332-1.156 5.954 0 7 .44.398.8 1.029.8 1.401 0 .372.36 1.092.8 1.599.44.507.8 1.305.8 1.772 0 .468.36 1.158.8 1.535.44.377.8 1.077.8 1.556 0 .478.279 1.155.62 1.503 2.553 2.61 9.983 10.029 10.877 10.863.607.565 2.006 2.005 3.11 3.2 1.104 1.194 2.904 2.996 4 4.004 1.096 1.007 5.276 5.192 9.29 9.3C60.31 262.64 63.753 266 63.948 266c.195 0 1.232 1.035 2.303 2.3 1.072 1.265 2.746 3.02 3.721 3.9.975.88 4.035 3.924 6.8 6.765 2.765 2.841 5.564 5.631 6.22 6.2 1.253 1.087 2.303 2.146 5.636 5.683 1.115 1.184 2.555 2.621 3.2 3.195.644.574 3.468 3.364 6.274 6.2 2.807 2.836 5.597 5.634 6.2 6.217.604.583 3.472 3.463 6.374 6.4 2.902 2.937 7.28 7.32 9.728 9.74 2.449 2.42 5.236 5.21 6.194 6.2.958.99 2.611 2.632 3.672 3.648 1.062 1.017 3.936 3.897 6.388 6.4 2.452 2.504 5.332 5.405 6.4 6.447 1.068 1.042 2.426 2.437 3.016 3.1 1.727 1.936 5.871 1.67 6.742-.433.264-.639.636-1.162.825-1.162.189 0 .453-.437.587-.971.134-.533.588-1.281 1.008-1.662.42-.38.764-.868.764-1.084 0-.217.72-1.175 1.6-2.129.88-.955 1.6-1.951 1.6-2.214 0-.262.305-.814.677-1.225.595-.658.68-1.917.7-10.44.022-9.428.048-9.724.923-10.838.495-.63.9-1.384.9-1.677 0-.292.405-.74.9-.994 3.053-1.567 5.128-7.256 2.951-8.091-.301-.116-.671-.702-.822-1.303-.151-.601-.878-1.831-1.616-2.733-.743-.907-1.472-2.353-1.634-3.239-.161-.88-.537-1.955-.836-2.389-.824-1.198-.747-8.542.103-9.756.356-.507.709-1.8.786-2.872.099-1.389.517-2.507 1.453-3.886.723-1.065 1.495-2.224 1.715-2.576.22-.352.985-1.477 1.7-2.5.715-1.024 1.3-2.005 1.3-2.18 0-.176 1.125-1.343 2.5-2.595 3.488-3.174 3.419-3.105 4.515-4.504.542-.692.985-1.653.985-2.137 0-.483.36-1.336.8-1.896 1.259-1.6 1.259-79.17 0-80.309-.44-.398-.8-.957-.8-1.241 0-1.179-2.097-4.323-4.053-6.079-3.594-3.225-5.547-5.556-5.547-6.623 0-.34-.226-.761-.501-.937-.632-.403-2.699-3.431-2.699-3.953 0-.214-.36-.697-.8-1.074-.527-.452-.807-1.198-.819-2.189-.011-.827-.179-3.214-.373-5.304-.194-2.09-.549-6.115-.788-8.944l-.436-5.143-3.092-3.16c-3.824-3.907-4.191-4.323-4.704-5.338-.226-.448-.856-1.032-1.4-1.297-.967-.472-1.372-.843-4.933-4.518-.96-.99-2.376-2.34-3.148-3-.771-.66-1.964-2.033-2.65-3.051-.686-1.018-1.654-2.124-2.152-2.457-.498-.334-2.133-1.796-3.634-3.249s-3.211-2.761-3.8-2.906c-.589-.145-1.431-.491-1.871-.77-.667-.422-1.035-.384-2.217.23m76.941 76.903c-.628.969-.615 73.76.012 75 .307.605.672 1.736.812 2.512.182 1.008.914 2.056 2.554 3.659 1.264 1.235 2.92 3.095 3.68 4.133.76 1.038 1.795 2.076 2.3 2.306.553.252.918.769.918 1.3 0 .485.36 1.34.8 1.899.44.56.801 1.619.803 2.354.001.735.36 1.877.797 2.537.437.66.796 1.833.797 2.606.002.773.363 2.078.803 2.898.972 1.814 1.081 4.899.19 5.397-.372.209-.703 1.188-.851 2.52-.133 1.199-.555 2.719-.938 3.379-.383.66-.715 1.877-.737 2.704-.022.827-.223 1.845-.446 2.263-.336.627-.158.978 1.02 2.013l1.428 1.253 6.513-.052 6.514-.053 3.221 3.136c1.772 1.725 4.046 3.916 5.054 4.868 1.008.953 1.953 2.212 2.1 2.797.147.584.507 1.303.799 1.596.293.293.533.881.533 1.308 0 .426 1.08 2.107 2.4 3.735 1.32 1.628 2.4 3.232 2.4 3.563 0 1.897 1.679 2.98 3.402 2.195.549-.25.998-.574.998-.72 0-.147 1.215-1.522 2.7-3.058 8.55-8.838 8.45-8.71 8.55-10.92.067-1.45-.086-2.178-.53-2.532-.343-.273-.75-1.036-.903-1.696-.154-.66-.555-1.506-.891-1.879-.882-.978-.868-9.68.016-10.657 1.564-1.729 1.561-12.852-.005-13.784-.295-.176-.537-.737-.537-1.246s-.334-1.355-.742-1.88c-.408-.525-.863-1.611-1.011-2.414-.147-.803-.533-1.68-.858-1.949-.324-.269-.591-1.052-.593-1.74-.002-.954-.523-1.821-2.193-3.651-1.204-1.32-2.307-2.76-2.451-3.2-.144-.44-.597-1.229-1.007-1.754-.41-.525-.745-1.532-.745-2.238 0-.776-.316-1.57-.8-2.008-.44-.398-.8-1.118-.8-1.6s-.36-1.202-.8-1.6c-.736-.666-.8-1.232-.8-7.041v-6.316l-2.297-1.522c-2.515-1.665-8.503-7.524-8.503-8.319 0-.274-.72-1.402-1.6-2.507-.88-1.105-1.6-2.315-1.6-2.689 0-.374-.36-1.137-.8-1.697-.743-.945-.8-1.623-.8-9.537 0-9.985.024-9.896-3.619-13.39-1.529-1.467-2.781-2.803-2.781-2.967 0-.615-2.462-3.381-3.224-3.622-.434-.139-2.722-2.213-5.083-4.61-5.228-5.307-5.377-5.478-5.956-6.824-.355-.825-.841-1.14-2.077-1.349-.888-.15-1.826-.528-2.086-.841-.583-.702-2.611-.748-3.05-.069m90.476 33.845c-1.131.297-3.669 1.792-5 2.945-1.425 1.234-2.282 3.02-2.508 5.228-.289 2.819-1.535 5.584-3.407 7.557-3.052 3.218-1.884 6.566 3.868 11.088 3.244 2.551 5.334 4.82 5.806 6.307.149.472.535 1.076.856 1.343.322.267.585.799.585 1.182 0 .383.36 1.155.8 1.714.44.56.8 1.5.8 2.091 0 .591.36 1.531.8 2.091.629.799.801 1.625.803 3.863.002 2.167.192 3.132.797 4.046.44.664.796 1.877.797 2.716.002.922.356 2.02.903 2.8 1.242 1.772 1.575 1.94 2.498 1.264.441-.323 1.186-.754 1.654-.956.469-.202 1.639-1.108 2.6-2.012.962-.904 2.741-2.459 3.955-3.457 3.99-3.278 30.793-30.698 30.793-31.501 0-.301.373-1.02.828-1.599 2.003-2.546-.125-3.808-6.828-4.048-2.891-.103-4.895-.402-6.429-.957-1.699-.615-2.773-.751-4.523-.57-1.947.201-2.469.107-3.455-.622-.638-.472-1.431-.858-1.761-.858-.331 0-1.29-.696-2.132-1.546-.842-.851-1.913-1.668-2.379-1.816-.467-.148-1.067-.532-1.334-.853-.267-.322-.979-.585-1.582-.585-.603 0-1.555-.36-2.114-.8-.56-.44-1.276-.8-1.592-.8-.316 0-.901-.36-1.299-.8-.398-.44-1.153-.8-1.678-.8-.525 0-1.442-.357-2.038-.794-1.213-.889-6.919-1.43-9.084-.861m-27.1 27.526c-.369.369-1.423.774-2.342.9-3.443.472-6.232 5.737-4.217 7.963.357.395.769 1.337.915 2.092.234 1.207 2.126 3.911 4.244 6.063.385.391.7.959.7 1.262 0 .303.258.766.574 1.028.316.262.686.984.822 1.605.137.621 1.228 2.212 2.426 3.535 1.198 1.324 2.178 2.62 2.178 2.881 0 .261.36.931.8 1.491.44.559.8 1.508.8 2.109s.36 1.55.8 2.109c.44.56.8 1.186.8 1.392 0 .206.36.701.8 1.099.449.406.8 1.232.8 1.882 0 .637.303 1.734.673 2.438.48.912.724 2.626.849 5.966.167 4.45.225 4.719 1.164 5.333 1.269.832 3.207.146 3.56-1.26.13-.517 1.567-2.141 3.195-3.609l2.959-2.669v-2.928c0-2.906-1.939-7.021-3.899-8.273-.276-.176-.501-.823-.501-1.438s-.35-1.435-.778-1.822c-.717-.649-.788-1.379-.9-9.162l-.122-8.458-1.552-2.2c-2.74-3.886-7.808-8.4-9.431-8.4-.453 0-1.133-.36-1.51-.8-.844-.986-2.881-1.055-3.807-.129m-66.599 68.423c-3.426.167-4.773 1.219-6.792 5.306-.272.55-.715 1.304-.985 1.677-.399.55-.363.817.193 1.431.376.415.683 1.058.683 1.427 0 .37.36.981.8 1.358.44.377.8 1.071.8 1.542 0 .471.36 1.315.8 1.874.44.56.8 1.207.8 1.439 0 .231.682 1.103 1.516 1.937 1.625 1.624 3.284 4.1 3.284 4.899 0 .269.36.947.8 1.507.44.559.8 1.415.8 1.902 0 .486.315 1.258.7 1.713.385.456 1.329 1.567 2.097 2.469 1.631 1.913 1.937 2.576 1.975 4.276.015.688.275 1.858.577 2.6.348.857.648 3.974.823 8.549.151 3.96.431 7.358.622 7.551.543.548 2.327-.071 2.59-.899.13-.411 2.341-2.795 4.913-5.299 2.572-2.504 6.753-6.695 9.29-9.313 2.537-2.618 6.008-6.174 7.713-7.903 3.095-3.137 3.941-4.97 2.659-5.762-.242-.15-.703-.836-1.024-1.524-.865-1.856-1.527-2.959-2.271-3.78-.365-.404-.664-1.101-.664-1.549 0-.448-.36-1.272-.8-1.831-.44-.56-.8-1.557-.8-2.217 0-2.262-1.968-5.239-5.119-7.743l-2.933-2.331h-3.794c-2.624 0-4.159.189-4.978.612-2.109 1.091-3.828.886-5.492-.655-3.733-3.457-3.856-3.502-8.783-3.263m-23.699.703c-.375.452-.48 3.883-.435 14.129.058 13.049.031 13.569-.754 14.566-.447.569-.813 1.473-.813 2.009 0 .536-.36 1.301-.8 1.699-.44.398-.8 1.045-.8 1.438s-.163.815-.362.938c-.713.441-2.838 4.632-2.838 5.598 0 .542-.226 1.13-.501 1.306-.657.419-2.699 3.44-2.699 3.993 0 .236-.27.653-.6.927-.801.665-.76 2.585.09 4.138.71 1.3 7.667 8.662 8.184 8.662.466 0 2.871 1.721 4.357 3.116.753.708 1.729 1.397 2.169 1.532.44.136 1.07.477 1.4.758.906.771 4.947 1.476 6.674 1.164 2.606-.47 2.806-.706 3.107-3.658.152-1.492.534-3.848.848-5.237.975-4.31.81-23.86-.22-26.131-.435-.959-.795-2.244-.8-2.856-.006-.683-.625-1.891-1.609-3.136-.88-1.113-1.6-2.258-1.6-2.545 0-.287-.27-.625-.6-.752-.342-.131-.6-.728-.6-1.389 0-.637-.354-1.608-.786-2.157-1.174-1.493-1.559-6.862-.632-8.815.84-1.77.696-2.732-.501-3.328-1.513-.755-2.881-2.254-2.881-3.157 0-2.305-4.621-4.471-5.998-2.812"/>
</svg>