<svg xmlns="http://www.w3.org/2000/svg" viewBox="0 0 400 234.3434">
    <path fill="currentColor" stroke="currentColor" fill-rule="evenodd" d="M352.733 9.346c-.578.696-2.028 3.764-3.224 6.818-2.782 7.108-6.108 12.883-12.505 21.715-6.221 8.587-11.875 21.855-11.057 25.945.312 1.564.138 2.843-.389 2.843-.526 0-.814-2.345-.639-5.211.356-5.825-.208-5.867-2.241-.168l-1.377 3.864-.045-3.729c-.024-2.05-.498-4.009-1.054-4.352-.556-.344-1.01-4.026-1.01-8.183 0-14.032-5.089-31.354-11.024-37.524-2.428-2.524-4.111-2.933-4.159-1.01-.075 3.088-2.16 26.129-2.901 32.07-1.008 8.076.099 15.833 3.428 24.024 2.813 6.924 2.986 7.687 1.538 6.793-.596-.369-.854.605-.642 2.428.328 2.811.192 2.959-1.781 1.934-1.907-.991-1.865-.809.389 1.691 1.471 1.632 1.893 2.59 1.011 2.294-.834-.279-2.318-.094-3.298.41-1.253.645-1.703.549-1.515-.323.151-.7-.937-1.352-2.495-1.497l-2.763-.257 2.662 2.29 2.663 2.29-4.951-.268c-4.889-.266-4.916-.251-2.172 1.216 3.989 2.131 3.424 2.727-.881.928-4.997-2.088-5.669-1.85-1.392.492 3.756 2.056 2.88 2.681-1.449 1.035-3.418-1.3-3.31-.48.186 1.417l2.778 1.507-3.03.112c-2.387.087-2.629.269-1.14.854 1.709.671 1.612.92-1.01 2.598-1.595 1.021-9.264 6.498-17.042 12.172-11.009 8.032-15.065 10.436-18.31 10.854-2.293.296-7.837 2.195-12.32 4.219-9.549 4.311-12.09 4.116-16.143-1.239-7.52-9.938-9.204-10.599-19.91-7.81-6.879 1.792-11.006 1.111-13.651-2.251-2.165-2.752-2.624-2.3-.913.897.592 1.106 2.069 2.411 3.283 2.9 1.877.757 1.648.899-1.531.953-2.505.043-4.113-.518-4.874-1.703-1.062-1.651-1.099-1.646-.556.082.32 1.018.582 2.041.582 2.273 0 .233 2.985.423 6.633.423h6.633l-3.459 4.293c-1.903 2.361-4.704 6.452-6.224 9.09-4.578 7.945-7.086 5.079-8.636-9.868-1.193-11.505-1.49-12.027-5.949-10.473-2.448.853-3.94.857-5.791.013-4.457-2.031-7.45-1.473-7.45 1.389 0 2.997.034 2.99-4.502.827-3.644-1.737-2.869-5.372 1.145-5.372 2.144 0 3.925-4.664 2.457-6.433-5.335-6.429-35.493-10.138-42.169-5.187-4.105 3.045 14.258 25.538 24.666 30.214l4.292 1.928 8.823-4.099c15.13-7.028 13.946-7.774 15.917 10.036 1.927 17.425 2.881 20.818 6.075 21.62 4.164 1.045 2.316 7.376-4.301 14.738-5.612 6.244-7.358 9.386-7.312 13.157l.041 3.319 1.553-2.868c.855-1.576 1.783-2.638 2.062-2.359.279.28.016 1.426-.584 2.548-1.407 2.63-1.399 9.073.017 13.134 1.425 4.087 2.931 4.084 2.931-.006 0-3.669 7.027-11.295 9.525-10.337 2.935 1.126 4.104-3.695 4.108-16.946.004-15.034-.724-13.811 8.694-14.607 8.813-.745 8.549-.948 12.361 9.529 3.819 10.495 3.617 15.32-.849 20.263-4.32 4.782-4.318 4.542-.106 11.223 2.947 4.673 3.273 5.785 2.313 7.892-.936 2.054-.796 2.687.863 3.904 2.631 1.93 2.023 5.179-1.648 8.8-7.044 6.948-4.174 9.464 12.214 10.707 5.833.443 12.652 1.359 15.152 2.037 14.271 3.868 46.483-2.368 43.268-8.376-.843-1.576-.838-2.217.021-2.504 3.858-1.286-2.825-9.241-11.384-13.551-3.381-1.703-7.232-3.945-8.557-4.982-1.513-1.185-4.048-1.885-6.818-1.885-4.895 0-5.3-.794-2.826-5.539 1.08-2.07 1.39-4.442.99-7.576-.89-6.976 3.012-16.687 8.091-20.137 5.539-3.762 7.471-7.769 8.99-18.642.842-6.026 2.028-10.471 3.214-12.043 1.88-2.494 26.368-19.601 26.92-18.807.161.231.729 1.738 1.262 3.348 2.146 6.476 11.733 9.392 20.667 6.285 2.703-.94 4.682-1.183 4.882-.599.185.54 1.208.982 2.273.982 4.648 0 1.949 17.131-3.49 22.146-1.46 1.347-2.655 3.175-2.655 4.063 0 .888-1.621 2.488-3.602 3.555-14.38 7.744-13.373 20.468 1.844 23.295 2.879.535 3.945 1.296 4.411 3.151 2.152 8.573 18.634 6.722 27.856-3.129 2.387-2.55 7.149-7.47 10.583-10.933 11.546-11.644 11.669-21.963.247-20.61l-4.744.562-.694-9.787c-.832-11.732-3.853-27.511-7.016-36.641-2.248-6.489-2.259-6.708-.443-8.951 4.991-6.163.918-15.205-6.849-15.205-8.468 0-8.602-1.884-.686-9.694 11.252-11.1 16.467-25.11 16.467-44.238 0-11.417-1.824-16.117-4.843-12.48m3.348 4.917c3.494 20.679-5.424 43.267-22.221 56.282l-3.008 2.331 2.477 1.868c2.432 1.835 2.443 1.907.588 3.957-1.779 1.966-1.968 1.986-3.225.33-1.771-2.333-1.733-1.288.116 3.136 2.306 5.519 1.931 5.831-3.577 2.973l-5.091-2.641-2.949 3.447c-8.286 9.69-4.155 18.832 6.112 13.523 1.639-.848 2.98-1.131 2.98-.629 0 1.286-2.021 2.731-5.556 3.975-1.666.586-2.256 1.102-1.31 1.146 3.384.157 6.88-2.321 8.626-6.114 1.709-3.711 3.571-4.895 4.736-3.009 1.124 1.818 5.677 2.224 7.255.646 2.424-2.424 3.138-1.912 5.266 3.775 3.393 9.068 5.444 19.651 7.72 39.837l.593 5.259-2.806-1.464c-3.598-1.877-11.388-1.861-18.464.038-3.055.82-5.842 1.497-6.194 1.503-.351.007-.03-1.692.714-3.775 2.604-7.298 1.452-19.905-1.726-18.897-2.164.687-2.468-.535-.622-2.492 1.399-1.483 1.314-1.455-5.704 1.856-15.775 7.444-25.287-2.875-17.946-19.471 1.14-2.576 1.865-4.683 1.612-4.683-1.558 0-12.93 8.78-13.324 10.287-.264 1.009-1.26 1.834-2.214 1.834-2.093 0-3.22.976-2.491 2.157.783 1.266 6.481-1.954 6.481-3.662 0-1.285 7.03-6.954 7.742-6.242 1.492 1.493-3.588 11.196-6.702 12.798-1.961 1.009-6.974 4.269-11.141 7.244-4.166 2.975-8.816 6.203-10.332 7.173-3.912 2.502-5.518 6.209-7.19 16.596-2.04 12.678-3.463 15.017-11.292 18.567-3.542 1.606-7.116 2.66-7.943 2.343-1.114-.428-1.671.425-2.153 3.295-.357 2.13-1.373 6.372-2.258 9.428-.884 3.055-1.467 6.01-1.294 6.566 1.21 3.889 1.106 5.838-.402 7.504-2.259 2.496-1.892 11.908.44 11.279.833-.225 4.47-.561 8.081-.748 5.972-.309 6.345-.086 2.118 1.264-1.11.355-1 .788.505 1.995 1.754 1.407 1.312 1.485-5.03.888-5.08-.478-7.164-.313-7.736.613-.582.942-1.912 1.03-5.169.343-5.009-1.057-5.781-2.777-1.468-3.269 2.314-.265 2.79-.004 2.304 1.262-.337.878-.14 1.596.436 1.596.577 0 .904-1.023.726-2.273-.205-1.439-.972-2.221-2.091-2.132-2.193.174-2.209-.659-.101-5.081 1.55-3.25 1.549-3.742-.015-7.038-1.63-3.435-1.609-3.651.705-7.061 2.616-3.854 4.488-17.45 2.656-19.282-.622-.622-.971-.535-.971.241 0 4.884-17.34-.096-24.982-7.176-7.165-6.637-7.738-6.809-20.253-6.093-12.856.735-13.67.224-14.739-9.257-3.543-31.421-2.634-30.365-19.042-22.106-8.025 4.04-8.467 4.077-14.392 1.198-4.907-2.384-5.848-3.839-2.484-3.839 1.604 0 1.945-.453 1.469-1.952-.573-1.803-.337-1.873 3.102-.924 2.744.758 3.917.712 4.465-.177.439-.71 1.625-.924 2.891-.523 1.565.497 2.146.253 2.146-.902 0-1.77 1.566-2.126 2.526-.573 1.308 2.118 7.575 1.185 7.575-1.128 0-1.83.4-2.036 2.778-1.431 3.483.885 6.092.893 9.44.03l2.621-.677.61 8.421c.679 9.384 2.557 15.853 5.061 17.432 2.147 1.354 10.194-1.3 10.473-3.455.947-7.313 1.817-9.612 4.944-13.073 7.422-8.216 13.881-8.234 20.463-.058 7.085 8.802 9.752 9.311 20.549 3.922 3.149-1.572 8.224-3.25 11.277-3.729 4.232-.663 6.711-1.826 10.435-4.894 7.399-6.094 26.434-19.349 36.941-25.724 5.517-3.347 9.509-6.457 9.727-7.576.203-1.044.727-2.125 1.163-2.403.437-.278-1.017-5.278-3.23-11.111-4.935-13.006-5.562-18.788-3.466-31.939.896-5.622 1.629-13.542 1.629-17.6v-7.379l2.443 2.296c6.749 6.34 10.138 20.95 10.022 43.208l-.091 17.375 3.643-2.476c2.004-1.361 4.143-2.475 4.755-2.475 1.285 0 3.559-6.674 2.878-8.449-1.066-2.778 2.969-11.638 10.623-23.323 7.079-10.807 10.971-18.023 13.509-25.046 1.088-3.01 2.513-1.959 3.248 2.394m-49.01 23.366c0 31.646 6.274 48.515 9.109 24.492 1.516-12.854.688-19.965-3.631-31.147-1.902-4.925-3.458-9.818-3.458-10.873 0-1.056-.455-1.919-1.01-1.919-.639 0-1.01 7.156-1.01 19.447m43.827-10.708c-.99 2.591-4.646 8.939-8.126 14.107-13.979 20.762-17.383 35.928-5.42 24.145 6.351-6.255 11.776-17.104 13.738-27.469.822-4.349 1.894-9.383 2.381-11.188 1.387-5.142-.572-4.834-2.573.405m-37.762 10.307c2.097 6.679 2.449 13.076 1.357 24.641-1.763 18.665-6.39-2.698-5.633-26.01.296-9.148 1.049-8.907 4.276 1.369m35.91 3.385c-2.276 9.056-7.077 18.03-12.386 23.152l-4.578 4.417.71-3.994c.906-5.094 3.285-9.816 11.001-21.836 6.903-10.751 7.575-10.973 5.253-1.739m-223.647 1.882c-13.918 5.574-17.472 23.561-6.703 33.917 13.961 13.426 36.768 2.14 34.493-17.069-1.528-12.895-15.901-21.61-27.79-16.848m222.076 36.293c6.623 6.623-2.926 17.946-11.978 14.203-3.803-1.574-3.409-11.057.591-14.203 3.333-2.622 8.765-2.621 11.387 0m-26.768 0c-.343.555.211 1.01 1.231 1.01s2.865.708 4.1 1.572c1.994 1.397 2.245 1.401 2.245.036 0-2.732-6.185-4.869-7.576-2.618m7.629 8.844c3.82 3.413 2.997 7.113-2.301 10.344-9.442 5.757-14.249-4.22-5.462-11.337 2.95-2.39 4.149-2.236 7.763.993m-9.144 3.782c0 .833.454 1.515 1.01 1.515s1.01-.682 1.01-1.515c0-.833-.454-1.515-1.01-1.515s-1.01.682-1.01 1.515m-88.42 16.59c-2.798.447-6.094 1.133-7.325 1.524l-2.238.71 2.947 4.283c5.017 7.292 4.979 7.283 14.195 3.231 4.5-1.979 10.099-3.888 12.441-4.243 6.118-.928 9.01-3.568 5.094-4.65-4.49-1.24-19.513-1.752-25.114-.855m125.127.526c.561 1.46 2.804 13.698 4.27 23.288.407 2.663 1.136 3.244 6.019 4.794 3.056.971 8.619 3.215 12.361 4.987 3.743 1.773 7.123 3.252 7.512 3.287 1.222.11 12.042-22.906 11.47-24.398-1.363-3.55-23.253-11.256-36.825-12.963-4.842-.609-5.382-.496-4.807 1.005M2.02 168.687v60.606h31.313V200.27l7.755-8.635L48.844 183l15.616 23.146 15.616 23.147h38.187l-23.797-35.301-23.797-35.3L92.91 133.95c12.233-13.608 22.242-25.005 22.242-25.328 0-.323-8.275-.463-18.389-.311l-18.388.275-22.269 25.153-22.268 25.152-.269-25.405-.27-25.405H2.02v60.606m205.051-52.5c0 .569-1.2 1.491-2.666 2.048-1.466.557-2.428 1.25-2.139 1.539.878.878 5.842-.731 5.243-1.7-.307-.496.124-.902.958-.902.833 0 1.796-.455 2.139-1.01.343-.556-.312-1.01-1.455-1.01-1.144 0-2.08.465-2.08 1.035m-76.763 58.308-.005 54.798h31.313v-105.08l-6.032 3.045c-8.795 4.44-16.338 2.826-23.003-4.924l-2.268-2.637-.005 54.798m70.445-51.515c-1.952 2.183-2.612 5.062-1.258 5.489.556.175 1.155-.7 1.332-1.945.177-1.245 1.3-2.95 2.497-3.788 1.616-1.132 1.769-1.524.593-1.524-.871 0-2.295.796-3.164 1.768m79.949 6.734c-4.059 2.722-7.084 5.576-7.766 7.323-1.503 3.856-1.969 11.703-.714 12.044 2.106.571 18.943-20.788 17.632-22.368-1.672-2.014-1.681-2.011-9.152 3.001m37.48-1.309c-1.389.566-4.904.883-7.812.706-5.04-.308-5.347-.182-6.566 2.707-1.615 3.826-1.637 20.288-.032 23.952l1.199 2.739 3.323-3.088c14.433-13.417 16.497-16.569 15.779-24.1-.368-3.863-1.811-4.578-5.891-2.916m34.596 16.203c2.569 1.01 2.779 1.519 2.793 6.777.011 4.044.298 5.248.995 4.171.538-.834.986-2.75.994-4.258.031-5.435 8.034-6.831 10.132-1.767 2.027 4.894-6.37 18.946-9.986 16.711-.58-.358-1.823.841-2.762 2.664-6.297 12.225-20.922 19.448-28.04 13.849-3.321-2.612-3.453-6.281-.539-14.911 3.45-10.215.781-13.876-7.134-9.783-9.34 4.829-8.971 13.109.718 16.117 3.602 1.118 2.744 2.852-1.01 2.042-5.581-1.205-10.784-4.36-11.429-6.932-1.263-5.029 6.661-14.088 13.434-15.359 3.826-.717 5.451-2.414 2.312-2.414-4.128 0-.354-3.888 5.398-5.56 12.235-3.557 17.721-3.863 24.124-1.347m-15.173 3.543c-1.46.587-4.28 5.63-4.255 7.607.01.722.95-.144 2.091-1.924 6.653-10.388 15.418 1.305 10.392 13.864-1.931 4.827-1.267 6.314 1.164 2.605 6.032-9.206-.905-25.567-9.392-22.152m.681 7.792c.892 1.074.816 1.529-.329 1.968-5.021 1.927-6.045 13.081-1.252 13.629 7.22.827 10.057-9.482 4.217-15.323-2.067-2.066-4.318-2.301-2.636-.274m-145.357 2.345c-2.774 1.1-3.121 2.756-2.495 11.914.809 11.824-2.302 19.697-7.782 19.697-2.599 0-2.342 1.281 1.86 9.279 5.127 9.755 17.508 22.248 17.508 17.665 0-.737 1.136-2.406 2.524-3.71 2.353-2.211 2.412-2.495.874-4.194-1.169-1.292-1.48-2.869-1.066-5.416.469-2.894.004-4.45-2.39-7.997-3.948-5.851-3.821-8.894.563-13.408 8.197-8.44.403-27.795-9.596-23.83m133.948 1.734c.303.79-.034 2.495-.749 3.788-.714 1.293-1.185 3.033-1.045 3.867.203 1.211.071 1.244-.659.166-.502-.742-1.316-1.286-1.81-1.209-1.629.253-1.597-3.054.053-5.573 1.825-2.786 3.392-3.172 4.21-1.039m15.168 1.231c1.049 4.181-.715 7.886-3.932 8.259-2.481.287-2.759.003-2.759-2.814 0-6.4 5.357-10.76 6.691-5.445m29.672-.617c0 .515-2.386 3.333-5.303 6.262-2.917 2.93-7.47 7.655-10.12 10.501l-4.816 5.174 5.641 2.76c7.056 3.452 9.583 7.684 7.538 12.622-4.548 10.98-28.551 8.255-49.67-5.639-4.545-2.99-8.351-5.325-8.458-5.189-1.089 1.387-11.58 22.918-11.58 23.767 0 2.419 14.674 10.877 25.23 14.542 18.276 6.347 39.285 6.647 54.95.786 26.437-9.891 31.999-44.903 9.502-59.822-6.215-4.122-12.914-7.112-12.914-5.764m-51.383 6.101c1.554.832 1.758 1.395.886 2.446-.904 1.089-.713 1.255.944.822 2.236-.585 2.411-.33 1.465 2.135-.683 1.78-3.427 2.203-3.427.528 0-.589-.38-.835-.845-.548-.465.288-1.858-.186-3.095-1.052-3.594-2.518.106-6.453 4.072-4.331m-84.98 7.364c0 4.11-.609 6.312-2.526 9.136-2.846 4.194-3.057 6.076-1.084 9.639 1.258 2.272.024 6.974-3.164 12.066-.137.218-.828-.064-1.535-.626-.708-.562-3.002-1.575-5.098-2.25-6.827-2.199-9.832-12.612-4.85-16.804 3.504-2.949 6.508-8.198 7.607-13.292.683-3.163.891-3.283 5.679-3.283h4.971v5.414m-17.856.237 4.726 1.61-1.769 3.047c-.972 1.675-3.338 4.351-5.257 5.946l-3.49 2.899 1.871 5.322c2.824 8.036 3.23 8.562 7.874 10.206 2.971 1.051 3.6 1.548 2.032 1.603-1.25.044-2.273.565-2.273 1.158 0 .639-.873.801-2.146.397-1.292-.41-2.454-.183-2.92.57-.542.877-.982.595-1.471-.944-.507-1.598-1.225-2.028-2.635-1.581-2.223.706-2.402.184-.812-2.362.917-1.47.448-2.865-2.525-7.514-4.265-6.667-4.312-6.928-1.558-8.649 2.419-1.51 4.976-7.04 4.976-10.761 0-1.407.147-2.558.325-2.558.179 0 2.452.725 5.052 1.611m30.387 3.964c-.352 1.4-.085 3.884.593 5.52 1.064 2.57.929 3.601-.996 7.577-3.091 6.384-2.355 7.572 4.759 7.678 7.029.104 4.208 1.254-5.553 2.263-6.102.631-6.301.58-5.269-1.349.59-1.103 1.199-6.381 1.352-11.73.234-8.154.585-9.948 2.179-11.114 2.795-2.044 3.653-1.706 2.935 1.155m19.529 14.645-4.809 3.901 7.091 3.727c6.54 3.436 11.411 7.694 14.008 12.243.961 1.685 1.3 1.574 4.315-1.412l3.272-3.24-9.535-9.56-9.534-9.56-4.808 3.901"/>
  </svg>